<svg xmlns="http://www.w3.org/2000/svg" viewBox="0 0 2952.34 676.63">
  <defs>
    <style>
      .cls-1 {
        opacity: 0.6;
      }

      .cls-19, .cls-2, .cls-20 {
        fill: #8c6a3f;
      }

      .cls-3 {
        fill: #fbc012;
      }

      .cls-4 {
        fill: #f2df7a;
      }

      .cls-5 {
        fill: #f6f4e0;
      }

      .cls-6 {
        fill: #fff;
      }

      .cls-7 {
        fill: #feda1b;
      }

      .cls-8 {
        opacity: 0.5;
      }

      .cls-9 {
        fill: #878787;
      }

      .cls-10 {
        fill: #b4a48d;
      }

      .cls-11 {
        fill: #bfb098;
      }

      .cls-12 {
        fill: #a69883;
      }

      .cls-13 {
        fill: #3d3d3c;
      }

      .cls-14 {
        fill: #9b9b9b;
      }

      .cls-15 {
        fill: #d7d6d6;
      }

      .cls-16 {
        fill: #bcbec0;
      }

      .cls-17 {
        fill: #585856;
      }

      .cls-18 {
        fill: #9c9c9b;
      }

      .cls-19, .cls-34 {
        opacity: 0.2;
      }

      .cls-20, .cls-35 {
        opacity: 0.1;
      }

      .cls-21 {
        fill: #fdcea2;
      }

      .cls-22 {
        fill: #c7c6c5;
      }

      .cls-23 {
        fill: #dbdada;
      }

      .cls-24 {
        fill: #cbbba0;
      }

      .cls-25 {
        fill: #e3d2b3;
      }

      .cls-26 {
        fill: #6499ab;
      }

      .cls-27 {
        opacity: 0.3;
      }

      .cls-28 {
        fill: #778894;
      }

      .cls-29 {
        fill: #d1d3d4;
      }

      .cls-30 {
        fill: #717070;
      }

      .cls-31 {
        fill: #085e76;
      }

      .cls-32 {
        fill: #64747d;
      }

      .cls-33 {
        fill: #e6e7e8;
      }

      .cls-34, .cls-35 {
        fill: #1d1d1b;
      }

      .cls-36 {
        fill: #ededee;
      }

      .cls-37 {
        fill: #f3d3b0;
      }

      .cls-38 {
        fill: #2b3990;
      }

      .cls-39 {
        fill: #a4ddf2;
      }

      .cls-40 {
        fill: #cdecf9;
      }

      .cls-41 {
        fill: #eacfb8;
      }

      .cls-42, .cls-43, .cls-47, .cls-51, .cls-52, .cls-56, .cls-57, .cls-58, .cls-59, .cls-60 {
        fill: none;
      }

      .cls-42, .cls-43 {
        stroke: #2b3990;
      }

      .cls-42, .cls-43, .cls-47, .cls-51, .cls-52, .cls-53, .cls-58, .cls-59, .cls-60 {
        stroke-miterlimit: 10;
      }

      .cls-42, .cls-43, .cls-59 {
        stroke-width: 4.19px;
      }

      .cls-43, .cls-56, .cls-57 {
        stroke-linecap: round;
      }

      .cls-44, .cls-53 {
        fill: #3c2415;
      }

      .cls-45 {
        fill: #2e3192;
      }

      .cls-46 {
        fill: #aad2df;
      }

      .cls-47 {
        stroke: #aad2df;
        stroke-width: 0.57px;
      }

      .cls-48 {
        fill: #fbb040;
      }

      .cls-49 {
        fill: #231f20;
      }

      .cls-50 {
        fill: #f1f2f2;
      }

      .cls-51 {
        stroke: #e6e7e8;
        stroke-width: 2.09px;
      }

      .cls-52, .cls-53, .cls-59, .cls-60 {
        stroke: #fbc012;
      }

      .cls-52 {
        stroke-width: 1.05px;
      }

      .cls-53 {
        stroke-width: 0.25px;
      }

      .cls-54 {
        fill: #f9f3d2;
      }

      .cls-55 {
        fill: #c49a6c;
      }

      .cls-56, .cls-57, .cls-58 {
        stroke: #231f20;
      }

      .cls-56, .cls-57 {
        stroke-linejoin: round;
      }

      .cls-56 {
        stroke-width: 4.78px;
      }

      .cls-57, .cls-58 {
        stroke-width: 2.39px;
      }

      .cls-60 {
        stroke-width: 3.86px;
      }
    </style>
  </defs>
  <title>kinds4</title>
  <g id="Layer_2" data-name="Layer 2">
    <g id="Layer_4" data-name="Layer 4">
      <g class="cls-1">
        <path class="cls-2" d="M387.41,430.47l29.29,16.39a4,4,0,0,1,0,6.62l-153,88.73a4.92,4.92,0,0,1-5-.08L255.3,540"/>
        <g>
          <path class="cls-2" d="M2918.1,509,2948,526.29a8.66,8.66,0,0,1,0,15L2713.25,675.49a8.62,8.62,0,0,1-8.61,0l-324.2-187.42a2.64,2.64,0,0,1,0-4.59l19.55-11"/>
          <path class="cls-3" d="M2945.36,471.61V222.37a14.23,14.23,0,0,0-7.11-12.32L2641,38.41c-9.49-5.48-29.22,8.47-29.22,19.43L2619.61,300a14.24,14.24,0,0,0,7.12,12.32l292.75,180.17C2929,498,2945.36,482.57,2945.36,471.61Z"/>
          <path class="cls-3" d="M2910.49,532.85,2702.14,653.14a17.94,17.94,0,0,1-18,0l-289.79-167.3c-9-4.25-12.11-26.46-6.81-37.3l205.81-119.15c14.91,1.8,21.77,1.8,27.33,5l295.83,159.87C2921.09,499.1,2922.47,525.93,2910.49,532.85Z"/>
          <path class="cls-4" d="M2937.46,479.52V230.28a14.22,14.22,0,0,0-7.12-12.33L2633.06,46.31a14.24,14.24,0,0,0-21.35,12.33V307.88a14.24,14.24,0,0,0,7.12,12.33l297.28,171.63A14.23,14.23,0,0,0,2937.46,479.52Z"/>
          <path class="cls-5" d="M2911.7,228.23,2650,77.15a14.23,14.23,0,0,0-21.35,12.32V297.6a14.24,14.24,0,0,0,7.12,12.33L2897.47,461a14.23,14.23,0,0,0,21.35-12.33V240.56A14.22,14.22,0,0,0,2911.7,228.23Z"/>
          <path class="cls-4" d="M2910.49,519.74,2702.14,640a18,18,0,0,1-18,0l-289.79-167.3a18,18,0,0,1,0-31.15l208.35-120.29a18,18,0,0,1,18,0l289.79,167.3A18,18,0,0,1,2910.49,519.74Z"/>
          <g>
            <path class="cls-3" d="M2884.32,515.32c.73-2.83-1.61-3.7-3.3-4.69-9.9-5.79-19.88-11.44-29.81-17.16q-22.71-13.1-45.39-26.23l-51.56-29.8-50.11-29q-26-15-51.9-30.05-22.3-12.93-44.6-25.91c-4.59-2.67-9.21-5.3-13.82-7.94a8.66,8.66,0,0,0-9.18.05L2549,365.13l-47.24,27.23c-9.2,5.31-18.42,10.59-27.6,15.95-1.83,1.07-3.51,2.43-3.2,5,4,3.9,9.12,5.91,13.79,8.65,22.81,13.35,45.72,26.53,68.61,39.76q28.52,16.49,57.08,32.92c16.85,9.71,33.63,19.54,50.48,29.26q25.62,14.77,51.24,29.57c14.78,8.53,29.74,16.76,44.23,25.75,6.63,4.1,11.83,4.3,18.8.22,34.52-20.16,69.19-40.06,103.8-60.07C2880.93,518.24,2883.13,517.41,2884.32,515.32Z"/>
            <path class="cls-6" d="M2686.63,510.26c-.27-2.76-2.75-3.38-4.57-4.44q-34.56-20.13-69.21-40.11c-6.16-3.56-12.42-7-18.54-10.6-3.68-2.18-6.95-2.12-10.46.47a73.68,73.68,0,0,1-8,4.6c-1.46.82-3.22,1.45-2.24,3.72.25,1.9,2,2.16,3.27,2.88,25.07,14.48,50.19,28.88,75.21,43.47q7.43,4.34,14.91,8.61a6.07,6.07,0,0,0,7-.08c3.27-2.15,6.78-3.94,10.18-5.9C2685.33,512.26,2686.61,511.84,2686.63,510.26Z"/>
            <path class="cls-6" d="M2849,526c.65-1,.44-1.71-.67-2.34-5.32-3-10.6-6.13-15.9-9.21a4.59,4.59,0,0,0-5.4.22c-3.84,2.52-7.92,4.67-11.93,6.91-1.35.76-2.28,1.25-1,3.1,1.42,2.11-.93,2.45-2.12,3.15-4.92,2.88-9.9,5.67-14.82,8.56-1.27.75-2.91,1.31-2.8,3.29,4.43,3.67,9.71,5.94,14.63,8.8a3.08,3.08,0,0,0,3.19-.38q17.81-10.21,35.56-20.52A2.65,2.65,0,0,0,2849,526Z"/>
            <path class="cls-6" d="M2871.83,512.67c0-1.7-1.27-2.28-2.51-3-9.8-5.58-19.6-11.15-29.31-16.87-1.55-.91-3.07-1.68-4.68-1.16-5.48,1.78-10.15,5.13-15,8.16-1.15.72-.36,1.73.12,2.57,2.38,3.38,6.41,4.32,9.69,6.3,7.15,4.33,14.47,8.4,21.68,12.65,1.71,1,3.41,1.76,5.5.61q7.14-4,14.18-8.14A1,1,0,0,0,2871.83,512.67Z"/>
            <path class="cls-6" d="M2556,409.75c1.08-1.49.66-2.42-.91-3.3q-15.26-8.61-30.43-17.35a4.93,4.93,0,0,0-5.46,0c-3.61,2.09-7.36,3.94-10.95,6.06-1.36.79-3.11,1.56-2.74,3.74,4.32,3.58,9.42,5.9,14.2,8.72,5.65,3.32,11.3,6.64,17,9.86a6.79,6.79,0,0,0,7.86-.24C2548.27,414.6,2552.94,413.42,2556,409.75Z"/>
            <path class="cls-6" d="M2803.56,552.11c1-1.54-.07-2.37-1.17-3-8.6-4.91-17.21-9.81-25.86-14.62a6,6,0,0,0-6.68.32c-3.37,2.24-6.92,4.19-10.45,6.16-1.58.88-2.55,1.77-1.25,3.56,2.82,3.23,6.86,4.59,10.39,6.72,4.64,2.8,9.4,5.42,14,8.25,3.34,2,6.33,2.53,9.63.1C2795.84,556.9,2800.62,555.9,2803.56,552.11Z"/>
            <path class="cls-6" d="M2620,367c-2.64-4.3-7.63-5.2-11.45-7.77-4.73-3.18-9.84-5.77-14.74-8.7a7.2,7.2,0,0,0-7.89-.2c-3.61,2.11-7.2,4.23-10.86,6.24-1.52.84-2.74,1.59-1.31,3.46,2.88,3.38,7.18,4.6,10.76,6.9,5.15,3.31,10.67,6,15.88,9.29a3.71,3.71,0,0,0,4,.35C2609.61,373.39,2615.37,371.1,2620,367Z"/>
            <path class="cls-6" d="M2528.18,419.79c1.2-1.53.56-2.4-.95-3.27-8.36-4.77-16.67-9.63-25-14.43a5.5,5.5,0,0,0-5.61.07c-4,2.21-8,4.57-12,6.78-1.54.85-2.1,1.78-.93,3.29,3.71,3.7,8.67,5.41,13,8.11,4,2.51,8.19,4.79,12.31,7.16,2.67,1.53,5,1.66,7.43,0C2520.29,424.87,2525,423.42,2528.18,419.79Z"/>
            <path class="cls-6" d="M2568.77,389.89c-.09-2.3-2-2.75-3.58-3.63-5.68-3.24-11.34-6.54-17-9.77a6.7,6.7,0,0,0-7.79.27c-3,2-6.33,3.52-9.48,5.3-1.61.91-3.36,1.84-1.79,4.16,3.91,4.12,9.2,6.15,14,8.84,10.49,5.89,7.38,7,19.29-.23C2564.66,393.45,2567.75,393,2568.77,389.89Z"/>
            <path class="cls-6" d="M2797,496c-1.41-3-16.71-12.3-19.65-12-2.49.28-4.14,2.19-6.25,3.23-2.48,1.23-4.86,2.68-7.22,4.14-1.28.78-2.73,1.57-2.38,3.51,5.42,4.16,11.68,6.93,17.44,10.52a3.7,3.7,0,0,0,3.63,0c4.75-2.34,9.17-5.25,13.73-7.94A1.7,1.7,0,0,0,2797,496Z"/>
            <path class="cls-6" d="M2584.64,425.11c-1.46-3-17.13-12.43-20.16-11.77-3.86.84-7,3.31-10.23,5.45-2.06,1.36-5.46,1.21-5.78,4.72,5.29,4.62,11.7,7.4,17.75,10.76a3.64,3.64,0,0,0,3.64.09C2574.84,431.37,2580.43,429.34,2584.64,425.11Z"/>
            <path class="cls-6" d="M2823,511c-.19-2.84-2.82-3.24-4.58-4.37-3.5-2.26-7.21-4.2-10.82-6.31-2.18-1.28-4.47-1.78-6.76-.55-4.29,2.3-8.48,4.79-12.74,7.16-1.21.67-.72,1.63-.59,2.56.41,2.24,2.64,2.25,4.06,3.21,3.82,2.56,7.94,4.61,11.92,6.89,1.52.86,3.17,1.57,4.75.64C2813.18,517.27,2818.75,515.23,2823,511Z"/>
            <path class="cls-6" d="M2621.7,421.67c1.18-1.61.23-2.48-1.11-3.25q-7.62-4.32-15.21-8.67a3.79,3.79,0,0,0-4-.21c-4.48,2.53-9,5.06-13.41,7.63-1.07.62-1.61,1.54-.8,2.77,5.29,4.55,11.6,7.42,17.69,10.64a3.28,3.28,0,0,0,3.22-.13c4.43-2.6,8.95-5.05,13.36-7.7C2621.87,422.51,2621.87,422.09,2621.7,421.67Z"/>
            <path class="cls-6" d="M2740.51,515.28c-.09-.41,0-1-.28-1.2-5.51-4.33-11.79-7.39-17.95-10.6-1.26-.66-2.74.14-4,.86-3.63,2.09-7.22,4.27-10.92,6.25-1.53.82-2.48,1.77-2.31,3.57,5.27,4.41,11.65,7,17.42,10.62a3.5,3.5,0,0,0,3.64,0c4.73-2.68,9.58-5.18,14.05-8.31A1.27,1.27,0,0,0,2740.51,515.28Z"/>
            <path class="cls-6" d="M2585.47,374.47c1-1.46.74-2.48-.88-3.36-5-2.72-10-5.54-15-8.33a4.46,4.46,0,0,0-4.75-.25c-4.34,2.5-8.71,4.94-13,7.45-1.05.61-1.69,1.5-.84,2.75,5.18,4.77,11.73,7.27,17.71,10.71a2.5,2.5,0,0,0,2.43,0C2576.08,380.7,2581.51,378.75,2585.47,374.47Z"/>
            <path class="cls-6" d="M2595.67,405.8c-.69-4.16-4.71-4.52-7.42-6-13.81-7.62-8.78-8.18-22.41-.3-1.45.83-2.81,1.8-4.29,2.56s-1.05,1.7-.45,2.73c5.15,4.85,11.63,7.5,17.79,10.69a2.64,2.64,0,0,0,2.42-.18c4.77-2.36,9.22-5.25,13.77-8A1.45,1.45,0,0,0,2595.67,405.8Z"/>
            <path class="cls-6" d="M2750.55,443.59c1.1-1.63.26-2.37-1.19-3.19q-6.93-3.91-13.71-8.08a6.14,6.14,0,0,0-7.05-.13c-3.69,2.27-7.47,4.37-11.24,6.5-2,1.12-2.11,2.37-.45,3.87,4.87,4.21,10.74,6.8,16.29,9.9a4.12,4.12,0,0,0,4-.22c4.4-2.42,8.66-5.09,13-7.57A.83.83,0,0,0,2750.55,443.59Z"/>
            <path class="cls-6" d="M2715.15,500.12c-2.12-4-6.72-4.53-9.82-7.15-6.62-5.59-13.1-5.4-19.65.22a27.51,27.51,0,0,1-5.39,3.16c-1.5.77-1.06,1.7-.46,2.73,5.31,4.56,11.52,7.63,17.75,10.68a2.18,2.18,0,0,0,2,0C2704.92,506.76,2710.75,504.6,2715.15,500.12Z"/>
            <path class="cls-6" d="M2828,488.84c1.2-1.54.56-2.43-.94-3.28-4.85-2.76-9.63-5.65-14.47-8.43a5.58,5.58,0,0,0-5.65-.18c-4.38,2.45-8.65,5.1-13,7.65a2.28,2.28,0,0,0-1.25,2c5.51,4.51,12.05,7.3,18.11,10.89a2.89,2.89,0,0,0,2.83.16C2818.46,494.85,2823.91,493,2828,488.84Z"/>
            <path class="cls-6" d="M2555.18,434.33c-1.73-3.43-16.79-12.52-20.17-11.71-5.49,1.31-9.72,5.28-14.72,7.67-1.26.6-.76,1.59-.58,2.52.81,2.27,3.14,2.51,4.82,3.61,3.49,2.29,7.27,4.09,10.78,6.33,2.29,1.46,4.39,1.55,6.58,0C2546.21,439.8,2551.5,438.32,2555.18,434.33Z"/>
            <path class="cls-6" d="M2674,451.29c.82-1.69-.61-2.25-1.58-2.82q-7.18-4.2-14.48-8.22c-.93-.51-2.26-1.08-3.14-.79-5.84,1.91-10.72,5.62-15.82,8.89-.18.11.28,1.22.45,1.86,5.1,4.64,11.46,7.22,17.34,10.58a3.32,3.32,0,0,0,3.22-.31c4.46-2.32,8.76-4.91,13.1-7.43A1.79,1.79,0,0,0,2674,451.29Z"/>
            <path class="cls-6" d="M2636.05,455.42c.79-1.54-.06-2.13-1.34-2.84-4.86-2.69-9.66-5.48-14.44-8.32a5.68,5.68,0,0,0-5.23-.46c-4.48,2.2-8.76,4.82-13.06,7.37-1.32.77-1.42,2-.43,3.18,4.88,4.5,11.07,6.88,16.69,10.18a3.91,3.91,0,0,0,4-.23c4.53-2.53,9-5.08,13.48-7.76A1,1,0,0,0,2636.05,455.42Z"/>
            <path class="cls-6" d="M2802.84,473.21c-5-6.24-12.19-9-19.28-11.86-.69-.28-1.89.34-2.71.8-3.64,2-7.28,4.07-10.79,6.31-1.17.74-3.48,1.36-1.81,3.68,3.46,4.05,8.8,5.24,12.84,8.38s7.81,2.69,11.78-.21c2.24-1.64,4.9-2.7,7.25-4.22C2801.24,475.36,2802.8,475,2802.84,473.21Z"/>
            <path class="cls-6" d="M2640.18,406.34c1.17-1.52.59-2.41-.95-3.29-4.73-2.7-9.41-5.51-14.1-8.29-1.53-.91-3.42-1.46-4.83-.7-5.16,2.76-10.52,5.23-15.14,8.91-.25.19-.18.79-.26,1.19,5.47,4.53,11.89,7.49,18.08,10.83a3.13,3.13,0,0,0,2.84.16C2630.89,412.69,2636,410.21,2640.18,406.34Z"/>
            <path class="cls-6" d="M2776.61,458.62c1-1.47.7-2.45-.89-3.32q-7.33-4-14.56-8.14a5.36,5.36,0,0,0-5.9-.09c-3.82,2.26-7.72,4.4-11.55,6.66-1.13.67-2.69,1.31-1.54,3.17,5.14,4.55,11.4,7.3,17.31,10.62a2.52,2.52,0,0,0,2.43.23C2766.93,464.91,2772.57,463.05,2776.61,458.62Z"/>
            <path class="cls-6" d="M2610,440.32a1.84,1.84,0,0,0-.94-2.71c-5-2.8-9.87-5.71-14.8-8.58a5.24,5.24,0,0,0-4.47-.45c-5.09,2-9.6,5-14.23,7.85-1,.6-.33,1.49-.25,2.27.71,2.13,2.84,2.43,4.42,3.42,3.64,2.28,7.47,4.23,11.11,6.49,2,1.25,3.89,1.54,5.86.41,4.21-2.41,8.47-4.74,12.58-7.33A1.36,1.36,0,0,0,2610,440.32Z"/>
            <path class="cls-6" d="M2744.63,466.26c1.11-2.11-.62-2.66-1.9-3.42-4.33-2.55-8.68-5.06-13-7.63-2.48-1.47-4.82-1.75-7.42-.08-3.4,2.18-7,4.13-10.5,6.1-2,1.1-2.75,2.29-.8,4.09,4.68,4.29,10.62,6.56,15.93,9.85a4,4,0,0,0,4.06-.08c4.49-2.59,9-5.07,13.47-7.75C2744.87,467.09,2744.84,466.66,2744.63,466.26Z"/>
            <path class="cls-6" d="M2646.07,383.61c1.15-1.52.6-2.43-.93-3.3-5-2.82-9.9-5.76-14.86-8.6a5.2,5.2,0,0,0-2-.53c-3.26-.32-15.43,7.15-16.79,10.28,1.22,3.09,4.62,3.22,6.89,4.88s5.1,2.83,7.5,4.45c3.54,2.38,6.66,2,9.94-.37S2643.46,387.1,2646.07,383.61Z"/>
            <path class="cls-6" d="M2804.55,526.3c-.07-1.62-1.14-2.36-2.43-3.07-3.52-2-7.24-3.68-10.38-6.14-4.22-3.3-8-2.82-12.1-.12-2.89,1.9-5.89,3.67-8.94,5.31-1.53.83-1.57,1.71-.8,3,2.67,3.77,7.33,4.55,10.79,7.16,1.21.91,2.72,1.45,4,2.33a5.91,5.91,0,0,0,7.37.11c3.14-2.09,6.57-3.71,9.77-5.72C2802.93,528.44,2804.53,528.11,2804.55,526.3Z"/>
            <path class="cls-6" d="M2770.71,481.32c1.39-1.72,0-2.48-1.19-3.18-5-2.86-9.94-5.69-14.92-8.53a3.88,3.88,0,0,0-3.6-.52,87.16,87.16,0,0,0-14.52,8.35c-.91.63-.67,1.42-.21,2.2,1.35,3,4.61,3.54,7,4.88,13.5,7.43,9,8.46,22.86.28C2767.8,483.83,2769.84,483.32,2770.71,481.32Z"/>
            <path class="cls-6" d="M2778.28,511.65c1-1.57-.11-2.34-1.19-3q-7.08-4.05-14.23-8a8.37,8.37,0,0,0-3.16-1.05c-3.3-.31-15.32,7.28-16.73,10.45,5.21,4.21,11.27,7,17.05,10.32a3.91,3.91,0,0,0,3.64.42C2768.69,518.07,2774.31,516.14,2778.28,511.65Z"/>
            <path class="cls-6" d="M2766.61,530.44c-.57-3.15-3.73-3.42-5.63-5.08-9.05-7.9-18-7.92-27,.11a17.78,17.78,0,0,1-1.82,1c-1.29.88-.73,1.91-.17,2.92,5,4.45,11.06,7.18,16.84,10.35a2.4,2.4,0,0,0,2,.12C2756.55,537.42,2762.19,534.93,2766.61,530.44Z"/>
            <path class="cls-6" d="M2692.47,436.05c.6-1.23.29-2-1-2.67-5-2.78-10-5.65-14.91-8.56a4.82,4.82,0,0,0-4.06-.48c-5.29,1.91-9.94,5.06-14.65,8.06-1.16.75-.41,1.72.09,2.57,5.19,4.41,11.39,7.16,17.3,10.37a3,3,0,0,0,2.81-.15,139,139,0,0,0,14.1-8A1,1,0,0,0,2692.47,436.05Z"/>
            <path class="cls-6" d="M2614.15,390.57c.82-1.57-.11-2.15-1.36-2.84-4.77-2.64-9.51-5.34-14.18-8.14a5.71,5.71,0,0,0-6-.17c-4.18,2.25-8.27,4.67-12.42,7-1.48.84-1.5,1.86-.57,3.09,2.7,3.37,7.14,4.12,10.27,6.8,5.75,4.92,11.24,4,16.8-.34C2609.13,394.09,2612.65,393.72,2614.15,390.57Z"/>
            <path class="cls-6" d="M2698.35,413.29c.86-1.56-.09-2.14-1.32-2.83-4.82-2.74-9.58-5.59-14.38-8.37a5.47,5.47,0,0,0-4.86-.34c-5,2.05-9.45,5.24-14.08,8-.45.27-.5,1.22-.74,1.85,5.49,4.57,12,7.45,18.14,10.95a2.92,2.92,0,0,0,2.82-.11,137.47,137.47,0,0,0,14.17-8.06A.93.93,0,0,0,2698.35,413.29Z"/>
            <path class="cls-6" d="M2700.07,466.4c.73-1.51,0-2.14-1.33-2.87-4.61-2.59-9.13-5.34-13.67-8-1.78-1.06-3.85-1.56-5.61-.64-4.8,2.49-9.46,5.28-14.12,8.06-.44.26-.45,1.23-.66,1.88,5.14,4.37,11.28,7.14,17.05,10.49a4.06,4.06,0,0,0,3.3.21C2690.56,473.33,2695.94,470.89,2700.07,466.4Z"/>
            <path class="cls-6" d="M2667.17,420.86c-.94-3.67-4.51-4.3-7.13-5.8-14.29-8.19-10.16-8.19-24.42,0-1.54.88-5,.75-3.91,4.26,5.17,4.73,11.4,7.71,17.67,10.59a3.8,3.8,0,0,0,3.29-.13C2657.6,427,2663,425,2667.17,420.86Z"/>
            <path class="cls-6" d="M2724.43,428.39c1-1.78-.28-2.55-1.49-3.23-4.82-2.74-9.72-5.34-14.49-8.17a5.2,5.2,0,0,0-5.49-.05c-3.9,2.1-7.74,4.33-11.58,6.54-1.22.71-2.47,1.5-1.47,3.26,0,1.87,1.75,1.87,2.77,2.58,3.89,2.69,8.23,4.64,12.23,7.16a6.1,6.1,0,0,0,6.72.37c4.09-2.38,8.14-4.81,12.24-7.17C2724.42,429.37,2724.72,429,2724.43,428.39Z"/>
            <path class="cls-6" d="M2580.46,449.51c1-1.75-.24-2.56-1.48-3.29-4.69-2.76-9.37-5.53-14.09-8.21a5.48,5.48,0,0,0-5.58-.17c-4.12,2.33-8.08,5-12.26,7.18-2.38,1.27-1.16,2.26-.25,3.49,4.77,4.38,10.73,6.81,16.26,10a2.61,2.61,0,0,0,2.06.19C2570.81,456.59,2576.13,453.86,2580.46,449.51Z"/>
            <path class="cls-6" d="M2662.1,470.46c.78-1.28.2-1.93-1-2.59-4.83-2.75-9.59-5.6-14.4-8.39a6.14,6.14,0,0,0-1.95-.69c-4.23-.77-16.14,5.9-18,10,5.19,4.48,11.55,7.08,17.33,10.6a3.49,3.49,0,0,0,3.26.1C2652.53,477,2658,474.76,2662.1,470.46Z"/>
            <path class="cls-6" d="M2688.2,485.59c1.1-1.82-.34-2.53-1.51-3.19-4.83-2.76-9.71-5.4-14.53-8.17-1.84-1.05-3.51-1.32-5.44-.16-3.93,2.36-7.95,4.56-11.9,6.88-1.14.66-2,1.56-1.12,3.05,2.34,3.69,6.81,4.25,10,6.73,1.61,1.26,3.64,2,5.39,3.15,1.36.88,2.94,1.52,4.35.8C2678.6,492.06,2684.11,490,2688.2,485.59Z"/>
            <path class="cls-6" d="M2727,481.47c-1-3.65-4.75-3.88-7.1-5.85-8.15-6.84-16.35-7.4-24.44,0-1.4,1.28-4.94.77-3.89,4.29,0,1.62,1.53,1.95,2.53,2.47,4.23,2.17,8.11,4.94,12.33,7.12,2.85,1.46,5.47,1.65,8.29-.17C2718.77,486.7,2723.4,484.93,2727,481.47Z"/>
            <path class="cls-6" d="M2647.77,436.71c1.07-1.48.67-2.43-.91-3.32-4.74-2.69-9.41-5.5-14.1-8.28-1.53-.91-3.4-1.5-4.82-.74-4.91,2.62-10,5-14.29,8.61-.36.3-.35,1-.5,1.57.42,2.24,2.65,2.31,4.08,3.24a130.41,130.41,0,0,0,11.6,6.77c1.52.77,3.15,1.68,4.79.81C2638.52,442.8,2643.79,440.8,2647.77,436.71Z"/>
            <path class="cls-6" d="M2718.5,451.05a1.46,1.46,0,0,0-.61-2.37c-5.07-2.89-10.1-5.85-15.16-8.76a4.91,4.91,0,0,0-1.57-.51c-3.86-.67-16.36,6.39-18,10.12,5.36,4.25,11.41,7.35,17.47,10.44a4.25,4.25,0,0,0,4.05,0c4.6-2.61,9.25-5.13,13.75-7.91C2718.87,451.85,2718.77,451.42,2718.5,451.05Z"/>
            <path class="cls-6" d="M2712.71,525.37a3.88,3.88,0,0,0-2.26-3.3c-4.47-2.56-9-5.07-13.45-7.6-1.94-1.1-3.91-1.46-6-.29-4.12,2.34-8.23,4.69-12.35,7-1.52.85-1.35,1.92-.53,3.13,4.93,4.43,11.07,6.92,16.66,10.29a2.68,2.68,0,0,0,2.44.17C2702.78,532.25,2708.37,529.84,2712.71,525.37Z"/>
            <path class="cls-6" d="M2752.24,496.66c1-1.75-.24-2.56-1.48-3.29-4.68-2.76-9.36-5.53-14.08-8.21a5.5,5.5,0,0,0-5.58-.17c-4.12,2.33-8.08,5-12.26,7.18-2.34,1.25-1.24,2.24-.25,3.47,2.52,3.42,6.84,4.1,10,6.55,1.42,1.1,3.22,1.63,4.71,2.71a5,5,0,0,0,5.56.39q6.63-3.59,13.08-7.51A1,1,0,0,0,2752.24,496.66Z"/>
            <path class="cls-6" d="M2673.2,397.48c-5.27-5.08-11.76-8.2-18.35-11.05-2.15-.93-4.34.5-6.28,1.62-3.13,1.8-6.13,3.85-9.36,5.44-2.29,1.13-2,2.18-.63,3.68,4.62,4.58,10.74,6.73,16.22,9.89a4,4,0,0,0,3.68,0,103.82,103.82,0,0,0,14-8.12A1.89,1.89,0,0,0,2673.2,397.48Z"/>
            <path class="cls-6" d="M2736.22,538.76a2.62,2.62,0,0,0-1.38-2.4c-4-2.28-7.94-4.58-11.94-6.81-.82-.47-1.74-1.14-2.74-.75-5.83,2.29-11,5.69-16.19,9.19-.17.12.17,1,.28,1.52,4,3.93,9.23,6,14.06,8.59a2.91,2.91,0,0,0,2.83,0C2726.25,545.14,2731.9,543,2736.22,538.76Z"/>
            <path class="cls-6" d="M2781.81,565.05c-.07-1.61-1.11-2.38-2.42-3.08-3.3-1.76-6.62-3.52-9.77-5.53a5.56,5.56,0,0,0-5.17-.7c-4.6,2.21-9,4.85-13.43,7.42-1.31.76-1.42,2-.43,3.17,3.93,3.6,8.76,5.75,13.38,8.23a2.6,2.6,0,0,0,2.44.06C2771.76,571.78,2777.42,569.42,2781.81,565.05Z"/>
            <path class="cls-6" d="M2759,552c.23-1.75-1-2.37-2.24-3.09-2.78-1.57-5.54-3.18-8.23-4.9-3.21-2.06-6.29-2.54-9.7-.32s-6.79,4-10.24,6a3.09,3.09,0,0,0-1.61,3.12c3.82,3.53,8.66,5.43,13,8.08a5.15,5.15,0,0,0,5.91-.58c3.4-2.62,7.3-4.32,11-6.3A4.47,4.47,0,0,0,2759,552Z"/>
            <path class="cls-2" d="M2686.63,510.26c-4.28,3.4-9.28,5.62-13.94,8.41-2.7,1.63-4.86-.12-7-1.34q-23.61-13.61-47.16-27.31-22.47-13-44.91-26.12c-1.46,1.87.52,2.06,1.38,2.55q43.92,25.41,87.86,50.74c1.09.62,2.15,1.3,3.19,2,3,2,5.73,2.16,8.86-.1s6.57-3.7,9.8-5.65C2685.8,512.79,2687.94,512.46,2686.63,510.26Z"/>
            <path class="cls-2" d="M2849,526c-11.94,6.9-23.91,13.75-35.78,20.75a5.44,5.44,0,0,1-6.19.14c-4.2-2.47-8.47-4.82-12.71-7.21.54,3.15,3.8,2.87,5.59,4.44,6.89,6.06,13.34,5.34,20.77.17,8.44-5.87,17.76-10.46,26.66-15.69C2848.22,528.05,2850.06,527.81,2849,526Z"/>
            <path class="cls-2" d="M2871.83,512.67c-4.56,2.7-9.13,5.36-13.65,8.1a5.53,5.53,0,0,1-6.25-.08c-10.45-6.16-21-12.22-31.45-18.31-.85,2,1,2.16,2,2.74,9.7,5.61,19.46,11.1,29.13,16.78,2.56,1.51,4.74,1.78,7.35.12,3.77-2.4,7.76-4.47,11.61-6.75C2871.42,514.74,2873.34,514.49,2871.83,512.67Z"/>
            <path class="cls-2" d="M2556,409.75c-2.89,1.69-6,3.08-8.6,5.15-5,4-9.32,3.09-14.38-.07-9-5.62-18.32-10.65-27.51-15.93,1.79,3.73,5.83,4.45,8.88,6.4,6.68,4.27,13.69,8.05,20.52,12.1,3.69,2.18,7.17,2.58,10.91,0,2.72-1.91,5.83-3.28,8.64-5.09C2555.18,411.79,2557.34,411.69,2556,409.75Z"/>
            <path class="cls-2" d="M2620,367c-4.51,2.55-9.1,5-13.5,7.69-2.57,1.6-4.62,1.71-7.3.08-8.39-5.07-17-9.85-25.45-14.74-1.15,1.42.32,1.55,1,2q12.82,7.49,25.67,14.92c1.07.62,2.23,1.35,3.53.61,5.2-3,10.4-5.94,15.55-9C2619.87,368.32,2619.86,367.52,2620,367Z"/>
            <path class="cls-2" d="M2803.56,552.11c-4.45,2.62-8.89,5.27-13.36,7.85-2.18,1.26-4.28.75-6.34-.46q-12.84-7.5-25.71-15c-1.1,1.58.54,1.9,1.27,2.32,8.2,4.76,16.48,9.4,24.67,14.18a6.22,6.22,0,0,0,7,0c3.57-2.19,7.29-4.12,10.84-6.34C2802.73,554.2,2804.8,554,2803.56,552.11Z"/>
            <path class="cls-2" d="M2528.18,419.79c-2.64,1.55-5.55,2.78-7.87,4.71-5.39,4.51-10.24,3.69-15.77,0-6.71-4.48-13.9-8.21-20.88-12.26-1.09,1.42.31,1.55,1.05,2q12.33,7.15,24.67,14.28a6,6,0,0,0,6,.3c4.2-2.2,8.26-4.68,12.34-7.1C2528.4,421.31,2529.25,420.7,2528.18,419.79Z"/>
            <path class="cls-2" d="M2568.77,389.89c-4.27,3.66-9.41,5.92-14.23,8.68-1.76,1-3.78.33-5.56-.73-6.61-3.9-13.25-7.75-19.87-11.62-1.09,1.59.54,1.89,1.27,2.32,6.15,3.59,12.4,7,18.52,10.64,2.56,1.52,4.83,1.68,7.4.07,3.55-2.22,7.27-4.15,10.84-6.34C2568.13,392.3,2570,391.84,2568.77,389.89Z"/>
            <path class="cls-2" d="M2667.17,420.86c-4.21,2.42-8.47,4.75-12.6,7.29a7,7,0,0,1-7.83.09l-15-8.91c-1.13,1.51.28,1.88,1.14,2.38q7.08,4.07,14.22,8a9.35,9.35,0,0,0,3.1,1.17C2653.21,431.34,2665.63,423.9,2667.17,420.86Z"/>
            <path class="cls-2" d="M2718.5,451.05c-4.42,2.66-8.8,5.39-13.29,7.94-2.12,1.21-4.3.72-6.37-.48-5.2-3-10.43-6-15.65-9a2.57,2.57,0,0,0,1.51,2.34c5,2.81,10,5.64,15,8.45a5.67,5.67,0,0,0,6.31-.17c3.43-2.16,7.13-3.9,10.55-6.08C2717.44,453.51,2720.18,453.48,2718.5,451.05Z"/>
            <path class="cls-2" d="M2700.07,466.4c-4,3.1-8.5,5.22-12.81,7.72-2.31,1.35-4.78,1.05-7.12-.33-5.14-3-10.31-6-15.46-9,0,1.28.83,1.91,1.87,2.51,4.32,2.5,8.64,5,12.9,7.64,3,1.85,5.89,2.08,9,.15,3.42-2.14,7-4,10.42-6.13C2699.7,468.44,2701.67,468.2,2700.07,466.4Z"/>
            <path class="cls-2" d="M2580.46,449.51c-4.17,2.5-8.32,5-12.52,7.48-2.38,1.39-4.65,1.18-7.05-.3-4.63-2.85-9.39-5.47-14.09-8.18-1.17,1.58.5,1.89,1.22,2.31,4.43,2.62,8.94,5.11,13.41,7.67a5.91,5.91,0,0,0,6.33.25c4.09-2.37,8.22-4.67,12.31-7.06C2580.89,451.19,2581.88,450.51,2580.46,449.51Z"/>
            <path class="cls-2" d="M2727,481.47c-4.21,2.42-8.47,4.76-12.61,7.29a7,7,0,0,1-7.83.11l-15-9c-1.22,1.48.17,1.91,1,2.4q7.28,4.18,14.62,8.25a8,8,0,0,0,2.73,1C2713,492,2725.42,484.52,2727,481.47Z"/>
            <path class="cls-2" d="M2724.43,428.39c-4.29,2.56-8.56,5.14-12.85,7.68a5.62,5.62,0,0,1-6,.06c-5.26-3.08-10.48-6.26-15.71-9.39-1.47,1.52.29,1.87,1,2.28,5,3,10.12,5.85,15.2,8.74a5,5,0,0,0,5.18.1q6.33-3.64,12.59-7.4C2724.6,430,2725.9,429.52,2724.43,428.39Z"/>
            <path class="cls-2" d="M2797,496a120.17,120.17,0,0,1-14,8.37c-1.91,1-3.66.67-5.52-.42-5.29-3.1-10.67-6-16-9.05,2.54,4.19,7.6,4.75,11,7.63,5.59,4.68,11.07,4.74,16.74,0,1.79-1.48,4.13-2.29,6.1-3.58C2796.31,498.35,2798.21,498,2797,496Z"/>
            <path class="cls-2" d="M2673.2,397.48c-4.31,3.85-9.64,6.07-14.59,8.85-1.85,1-4.08.28-6-.87-4.67-2.79-9.37-5.53-14.05-8.29-1.25,2,.87,2,1.63,2.49,4.16,2.53,8.43,4.88,12.67,7.28.37.21.75.39,1.13.56C2658.13,409.31,2672.38,401.87,2673.2,397.48Z"/>
            <path class="cls-2" d="M2595.67,405.8c-4.4,3.48-9.38,6-14.27,8.65-1.68.91-3.28.33-4.77-.54q-7.78-4.55-15.53-9.14c-1.1,1,0,1.51.55,1.85,5.42,3.12,10.87,6.18,16.32,9.25a3.78,3.78,0,0,0,4,0c4.33-2.51,8.7-4.94,13-7.52C2595.7,407.86,2597.08,407.12,2595.67,405.8Z"/>
            <path class="cls-2" d="M2802.84,473.21c-4.3,3.64-9.46,5.87-14.29,8.63-1.65.94-3.28.32-4.77-.55-5.19-3-10.36-6.1-15.53-9.15-.75,1.94,1,2.11,2,2.71,4.41,2.66,8.86,5.25,13.3,7.86,1.46.86,3,1.76,4.7.84q7.13-3.93,14.11-8.08C2803.07,475.05,2804.18,474.28,2802.84,473.21Z"/>
            <path class="cls-2" d="M2804.55,526.3c-4.25,3.65-9.46,5.73-14.15,8.66a4.31,4.31,0,0,1-4.4-.18c-5.38-3.16-10.73-6.34-16.1-9.52-1.42,1.25,0,1.58.71,2,4.91,2.9,9.84,5.75,14.75,8.66a5.42,5.42,0,0,0,5.91.14c4.21-2.44,8.44-4.84,12.66-7.26C2805,528.19,2805.89,527.52,2804.55,526.3Z"/>
            <path class="cls-2" d="M2776.61,458.62c-4.34,2.55-8.7,5.05-13,7.67-2.11,1.28-4,.85-5.9-.29q-7.77-4.58-15.56-9.1c-1,1.43.41,1.61,1.11,2,4.32,2.59,8.77,5,13,7.73,3.36,2.2,6.33,2.21,9.66,0s6.74-4,10.12-6C2776.85,460.19,2778.06,459.77,2776.61,458.62Z"/>
            <path class="cls-2" d="M2636.05,455.42c-4.33,2.56-8.7,5.06-13,7.71a5.85,5.85,0,0,1-6.67-.1c-4.93-2.93-9.91-5.79-14.87-8.68-1.13,1.41.33,1.59,1,2q7.23,4.26,14.52,8.42a5.52,5.52,0,0,0,5.63.1q6.44-3.53,12.78-7.23C2636.31,457.18,2637.33,456.51,2636.05,455.42Z"/>
            <path class="cls-2" d="M2647.77,436.71c-2.76,1.62-5.8,2.9-8.23,4.92-5.2,4.3-9.94,3.55-15.05-.1-3.61-2.57-7.55-4.67-11.34-7-1.11,1.52.31,1.86,1.16,2.36,4.43,2.66,8.89,5.25,13.32,7.89a8.32,8.32,0,0,0,9.44-.17c3.18-2,6.53-3.76,9.77-5.68C2647.63,438.49,2649.32,438.22,2647.77,436.71Z"/>
            <path class="cls-2" d="M2828,488.84c-4.1,2.38-8.26,4.68-12.3,7.19A5.77,5.77,0,0,1,2809,496c-5.41-3.18-10.9-6.24-16.36-9.35.55,3.08,3.63,3.27,5.57,4.61,3.44,2.38,7.28,4.16,10.88,6.3a5.87,5.87,0,0,0,5.63.47c4.37-2.2,8.54-4.77,12.76-7.25C2828.15,490.37,2829,489.76,2828,488.84Z"/>
            <path class="cls-2" d="M2584.64,425.11c-4.32,2.52-8.73,4.92-12.95,7.62a6.32,6.32,0,0,1-7.37.06c-5.25-3.15-10.56-6.2-15.85-9.28.94,3.33,4.17,3.88,6.61,5.26,15.36,8.63,10.45,8.86,25.63.25C2582.28,428.13,2584.58,427.65,2584.64,425.11Z"/>
            <path class="cls-2" d="M2698.35,413.29c-4.25,3.19-9,5.5-13.59,8.13-2.15,1.23-4,.51-5.87-.58-5.3-3.09-10.61-6.14-15.92-9.21a2.6,2.6,0,0,0,1.48,2.35c5.07,2.91,10.14,5.84,15.22,8.74a5.4,5.4,0,0,0,5.58,0q6.39-3.56,12.7-7.24C2698.79,415,2699.74,414.29,2698.35,413.29Z"/>
            <path class="cls-2" d="M2614.15,390.57c-4.11,3.1-8.72,5.35-13.18,7.85a5.93,5.93,0,0,1-6.62-.28c-4.8-3-9.79-5.77-14.7-8.64-1.19,1.9.8,2.1,1.59,2.58,4.42,2.64,9,5.11,13.43,7.64a6.14,6.14,0,0,0,6.36.26c4.25-2.38,8.49-4.78,12.69-7.24C2614.53,392.27,2615.54,391.59,2614.15,390.57Z"/>
            <path class="cls-2" d="M2823,511c-4.46,2.6-8.95,5.15-13.37,7.83a5.29,5.29,0,0,1-5.9.22l-16.22-9.57c-1.18,1.27.07,1.74.82,2.18,5.07,3,10.19,5.85,15.27,8.81a5,5,0,0,0,4.47.47c5.15-2.46,10.25-5.06,14.68-8.74C2823,512,2822.88,511.41,2823,511Z"/>
            <path class="cls-2" d="M2585.47,374.47c-4.2,2.5-8.41,5-12.59,7.53-2.34,1.42-4.49,1-6.7-.34-5-3-10.11-6-15.18-8.93-.86,1.55.57,1.93,1.39,2.41,4.84,2.81,9.71,5.55,14.6,8.27,1.21.67,2.48,1.49,4,.85a109.43,109.43,0,0,0,14.93-8.5C2586.4,375.43,2586.07,374.76,2585.47,374.47Z"/>
            <path class="cls-2" d="M2715.15,500.12c-4.42,2.6-8.88,5.14-13.25,7.82a6.07,6.07,0,0,1-7,0c-5-3.05-10-5.94-15.07-8.9-1.1,1.58.54,1.9,1.27,2.33,4.81,2.82,9.69,5.54,14.56,8.28,1.63.91,3.25,1.54,5.12.44,4.21-2.48,8.47-4.87,12.7-7.31A2.86,2.86,0,0,0,2715.15,500.12Z"/>
            <path class="cls-2" d="M2740.51,515.28c-4.38,3.51-9.49,5.82-14.31,8.61-1.74,1-3.44.42-5.13-.57-5.3-3.11-10.67-6.12-16-9.16a1.85,1.85,0,0,0,.86,1.78q8.16,4.71,16.31,9.42a4.12,4.12,0,0,0,4.39,0c4.33-2.54,8.67-5.06,13-7.65C2740.44,517.2,2741.8,516.68,2740.51,515.28Z"/>
            <path class="cls-2" d="M2752.24,496.66c-4.17,2.5-8.33,5-12.51,7.48a6.09,6.09,0,0,1-6.7-.11c-4.77-2.86-9.62-5.6-14.44-8.39-.87,2,1,2.15,1.93,2.73,4.2,2.47,8.47,4.83,12.7,7.24,1.91,1.09,3.86,1.62,5.93.44,4.24-2.4,8.48-4.78,12.69-7.23C2752.67,498.34,2753.65,497.66,2752.24,496.66Z"/>
            <path class="cls-2" d="M2674,451.29c-4.37,3.51-9.45,5.86-14.28,8.59-2,1.12-3.77,0-5.49-1q-7.39-4.37-14.8-8.7c-1,1.58.56,1.91,1.31,2.35,4.82,2.83,9.73,5.51,14.57,8.33a5.28,5.28,0,0,0,5.55,0c4.05-2.21,8.07-4.48,12-6.88C2673.66,453.56,2675.54,453,2674,451.29Z"/>
            <path class="cls-2" d="M2692.47,436.05a4.07,4.07,0,0,1-.57.6c-14.69,9.67-14.69,9.66-29.93.62-1.33-.78-2.67-1.53-4-2.3-1,1,0,1.42.65,1.81,4.79,2.82,9.59,5.61,14.39,8.41,1.78,1,3.79,1.51,5.59.57,4.67-2.45,9.21-5.14,13.77-7.79C2693.17,437.5,2693.53,436.74,2692.47,436.05Z"/>
            <path class="cls-2" d="M2778.28,511.65c-4.31,2.58-8.61,5.19-12.94,7.75-2.28,1.35-4.51,1-6.74-.28-5.19-3-10.42-6-15.63-9,0,1.59,1.32,2.07,2.34,2.67,4.43,2.62,9,5.09,13.37,7.73,2.66,1.58,5,1.74,7.72-.12,3.2-2.2,6.72-3.93,10-5.95C2777.44,513.85,2779.19,513.57,2778.28,511.65Z"/>
            <path class="cls-2" d="M2610,440.32c-4.3,2.6-8.58,5.23-12.91,7.79a5.35,5.35,0,0,1-5.92,0c-5.26-3.2-10.57-6.29-15.86-9.43-1.11,2.05.84,2.16,1.83,2.74,4.44,2.61,9,5.05,13.34,7.76,2,1.22,3.95,1.68,5.9.65,4.55-2.39,9-5,13.42-7.6C2610.52,441.82,2611.06,441.08,2610,440.32Z"/>
            <path class="cls-2" d="M2662.1,470.46,2649.5,478c-2.57,1.53-5,1.19-7.51-.3-5-3-10.15-5.9-15.23-8.84-.07,1.54,1,2.1,2.16,2.74,4.72,2.68,9.44,5.35,14.09,8.14a4.86,4.86,0,0,0,4.75.5,100.32,100.32,0,0,0,14.08-8.1C2662.36,471.76,2663,471.16,2662.1,470.46Z"/>
            <path class="cls-2" d="M2621.7,421.67c-4.2,2.49-8.41,5-12.59,7.49-2.33,1.39-4.49,1-6.71-.32-5-3-10.13-5.94-15.2-8.9-1,1.37.39,1.77,1.08,2.17q7.63,4.42,15.35,8.7a4.67,4.67,0,0,0,5.14.11c3.82-2.34,7.81-4.39,11.59-6.78C2620.93,423.78,2623.53,423.66,2621.7,421.67Z"/>
            <path class="cls-2" d="M2770.71,481.32c-4.35,2.54-8.7,5.06-13,7.61a5,5,0,0,1-5.54.09l-15.87-9.38c-1.14,1.89.81,2.08,1.62,2.57,4.56,2.71,9.25,5.2,13.81,7.91a5.83,5.83,0,0,0,6.64.1c3.68-2.26,7.51-4.3,11.2-6.55C2770.26,483.23,2771.94,482.89,2770.71,481.32Z"/>
            <path class="cls-2" d="M2750.55,443.59c-4.05,2.42-8.13,4.78-12.14,7.27a6.35,6.35,0,0,1-7.06,0c-4.8-2.8-9.63-5.56-14.44-8.33-.87.71-.3,1.23.31,1.58q7.61,4.46,15.25,8.84a4.6,4.6,0,0,0,4.81.08c4.36-2.52,8.68-5.1,13-7.65C2751.17,444.9,2751.63,444.36,2750.55,443.59Z"/>
            <path class="cls-2" d="M2766.61,530.44c-4.4,2.65-8.78,5.34-13.21,7.94a5.65,5.65,0,0,1-6.28-.06c-5-3.06-10-6-15.09-8.91-1.17,2,.91,2,1.68,2.5,4.29,2.64,8.72,5.06,13,7.66a6.14,6.14,0,0,0,6,.48c4.62-2.34,9.06-5,13.53-7.65C2767,532,2767.67,531.26,2766.61,530.44Z"/>
            <path class="cls-2" d="M2555.18,434.33c-4.47,2.59-9,5.09-13.38,7.81a5.46,5.46,0,0,1-6.25.07c-5.26-3.17-10.56-6.27-15.84-9.4-1.15,1.51.29,1.88,1.13,2.37,4.84,2.83,9.73,5.56,14.53,8.43a5.29,5.29,0,0,0,5.22.47c4.7-2.46,9.27-5.19,13.83-7.91C2554.88,435.9,2554.93,435,2555.18,434.33Z"/>
            <path class="cls-2" d="M2640.18,406.34c-2.66,1.55-5.57,2.78-7.91,4.71-5.44,4.5-10.41,3.86-15.82-.11-3.58-2.63-7.69-4.54-11.55-6.78,0,1.53,1.17,2.06,2.29,2.71,4.47,2.59,8.91,5.23,13.36,7.85a5.63,5.63,0,0,0,4,1.11c6.24-1.35,11.2-5.09,16.12-8.87C2640.63,407,2640.33,406.56,2640.18,406.34Z"/>
            <path class="cls-2" d="M2646.07,383.61c-4.88,2.94-9.52,7.35-15,8-5.64.65-10-4.84-15.07-7.27a43.53,43.53,0,0,1-4.56-2.87c-1.23,1.87.63,2,1.51,2.54,4.66,2.75,9.39,5.39,14,8.16a6.27,6.27,0,0,0,6.35.39c4.17-2.19,8.2-4.65,12.25-7.06C2646.28,385.11,2647.17,384.51,2646.07,383.61Z"/>
            <path class="cls-2" d="M2744.63,466.26c-4.3,2.55-8.58,5.13-12.89,7.65a5.73,5.73,0,0,1-6.29-.19c-4.78-2.87-9.62-5.61-14.44-8.4-1.07,1.08,0,1.43.67,1.79,5,2.9,9.93,5.75,14.9,8.63a3.83,3.83,0,0,0,3.63.48c4.91-2.68,9.73-5.52,14.55-8.36C2745.53,467.4,2745.43,466.73,2744.63,466.26Z"/>
            <path class="cls-2" d="M2688.2,485.59c-4.29,2.56-8.56,5.14-12.87,7.66a5.43,5.43,0,0,1-5.91.07c-5.23-3.13-10.48-6.22-15.72-9.32-1.14.83-.44,1.35.34,1.8q7.93,4.62,15.9,9.22a3.85,3.85,0,0,0,4,.34c4.72-2.67,9.42-5.4,14.09-8.15C2688.59,486.87,2689.12,486.23,2688.2,485.59Z"/>
            <path class="cls-2" d="M2712.71,525.37c-4.39,2.66-8.77,5.34-13.18,8a5.64,5.64,0,0,1-6.27-.14c-5-3-10.06-5.93-15.1-8.87-1.06,1.09.09,1.43.69,1.78,4.82,2.85,9.66,5.65,14.5,8.46a5.72,5.72,0,0,0,5.64.44c4.57-2.42,9-5,13.49-7.66C2713.19,526.91,2713.81,526.16,2712.71,525.37Z"/>
            <path class="cls-2" d="M2759,552c-4,2.73-8.91,4-12.72,7.28-2.28,2-5,1.79-7.73.07-3.75-2.35-7.7-4.38-11.57-6.55-.16,1.43.92,2,1.92,2.44,4.87,2.3,9,7.71,14.5,6.62,5.07-1,9.57-4.83,14.32-7.42A2.31,2.31,0,0,0,2759,552Z"/>
            <path class="cls-2" d="M2781.81,565.05c-4.43,2.65-8.89,5.27-13.3,8a5.87,5.87,0,0,1-6.68-.12c-3.7-2.26-7.49-4.38-11.24-6.55.89,2.47,13.06,10,15.4,9.09a70.21,70.21,0,0,0,16.17-9.37C2782.25,566,2781.94,565.4,2781.81,565.05Z"/>
            <path class="cls-2" d="M2736.22,538.76c-4.34,2.54-8.74,5-13,7.66a6,6,0,0,1-7,.05c-3.94-2.4-8-4.65-12-7,3.78,5.14,9.56,8.81,15.1,8.89C2725.81,548.48,2731.86,544.24,2736.22,538.76Z"/>
          </g>
          <path class="cls-3" d="M2640.22,531.33,2557.83,485a5.6,5.6,0,0,0-5.52,0l-34.5,19.48a5.63,5.63,0,0,0,0,9.78l82,47a5.64,5.64,0,0,0,5.61,0l34.92-20.16A5.62,5.62,0,0,0,2640.22,531.33Z"/>
        </g>
        <path class="cls-3" d="M5.19,299.78l152.5-88a10.33,10.33,0,0,1,10.37,0L391.62,340.81a10.37,10.37,0,0,1,0,18L249.5,440.83a10.39,10.39,0,0,0-5.19,9v70.07a10.38,10.38,0,0,0,15.57,9l90.5-104.79,44.18,24.52a3.88,3.88,0,0,1,2,4,7.68,7.68,0,0,1-3.9,5.74L249.51,540.61a10.38,10.38,0,0,1-10.38,0L5.17,404.84a10.39,10.39,0,0,1-5.17-9V308.77A10.38,10.38,0,0,1,5.19,299.78Z"/>
        <path class="cls-5" d="M390.17,359.22v93.6L249.58,534a3.32,3.32,0,0,1-5-2.87V449.33a10.69,10.69,0,0,1,5.35-9.25Z"/>
        <path class="cls-7" d="M263.43,473.17c2.1-1.35,4.23-2.64,6.35-4l6.41-3.86c4.27-2.57,8.6-5.06,12.89-7.59s8.66-5,13-7.38l6.56-3.61c2.2-1.18,4.39-2.38,6.61-3.52-2.11,1.35-4.24,2.64-6.36,4l-6.4,3.87c-4.28,2.56-8.6,5.05-12.9,7.58s-8.66,5-13,7.38L270,469.65C267.83,470.82,265.65,472,263.43,473.17Z"/>
        <polyline class="cls-2" points="280.72 463.2 280.72 516.14 291.27 498.47 297.98 504.09 297.98 453.24"/>
        <g class="cls-8">
          <g>
            <path class="cls-9" d="M2767,259.73l-63.13-39.27a4.51,4.51,0,0,1-2.16-3.28L2767,254.87Z"/>
            <g>
              <polygon class="cls-10" points="2711.98 222.87 2756.24 248.42 2756.24 223.56 2711.98 198 2711.98 222.87"/>
              <polygon class="cls-11" points="2756.24 248.42 2756.24 223.56 2734.11 223.21 2756.24 248.42"/>
              <polygon class="cls-11" points="2711.98 198 2711.98 222.87 2734.11 223.21 2711.98 198"/>
              <polygon class="cls-12" points="2756.24 248.42 2735.53 236.46 2733.99 235.57 2711.98 222.87 2733.99 219.54 2734.11 219.52 2735.53 221.37 2756.24 248.42"/>
              <path class="cls-10" d="M2756.24,223.56,2712,198l20.32,26.41a5.11,5.11,0,0,0,4.76,1.93Z"/>
            </g>
            <g>
              <polygon class="cls-10" points="2712.02 197.69 2756.28 223.25 2756.28 198.38 2712.02 172.83 2712.02 197.69"/>
              <polygon class="cls-11" points="2756.28 223.25 2756.28 198.38 2734.15 198.04 2756.28 223.25"/>
              <polygon class="cls-11" points="2712.02 172.83 2712.02 197.69 2734.15 198.04 2712.02 172.83"/>
              <polygon class="cls-12" points="2756.28 223.25 2735.56 211.29 2734.03 210.4 2712.02 197.69 2734.03 194.36 2734.15 194.35 2735.56 196.19 2756.28 223.25"/>
              <path class="cls-10" d="M2756.28,198.38,2712,172.83l20.31,26.4a5.12,5.12,0,0,0,4.77,1.94Z"/>
            </g>
            <g>
              <polygon class="cls-10" points="2717.21 176.05 2753.77 197.16 2753.77 160.42 2717.21 139.31 2717.21 176.05"/>
              <polygon class="cls-6" points="2743.43 164.11 2750.79 168.36 2750.79 162.55 2743.43 158.3 2743.43 164.11"/>
            </g>
            <polygon class="cls-9" points="2771.84 262.53 2766.99 259.73 2766.99 237.32 2771.84 240.12 2771.84 262.53"/>
            <polygon class="cls-13" points="2778.18 161.66 2771.84 158 2771.84 302.94 2778.18 306.6 2778.18 161.66"/>
            <polygon class="cls-13" points="2794.49 275.66 2777.24 265.69 2777.24 305.09 2794.49 315.06 2794.49 275.66"/>
            <g>
              <path class="cls-13" d="M2780.56,330.94c0,9.78,6.85,21.69,15.33,26.59s15.36,1,15.36-8.84-6.85-21.69-15.33-26.6S2780.56,321.15,2780.56,330.94Z"/>
              <rect class="cls-13" x="2785.09" y="321" width="11.59" height="43.42" transform="translate(202.55 1441.35) rotate(-30)"/>
              <g>
                <path class="cls-14" d="M2776.07,340c0-6.24,4.39-8.78,9.79-5.65s9.8,10.71,9.8,16.95-4.39,8.78-9.8,5.65S2776.07,346.2,2776.07,340Z"/>
                <path class="cls-13" d="M2785.85,363.33c8.48,4.9,15.36.94,15.36-8.84s-6.85-21.69-15.33-26.6-15.36-.94-15.36,8.84S2777.37,358.42,2785.85,363.33Zm0-28.63c5.22,3,9.45,10.35,9.45,16.38s-4.25,8.46-9.46,5.44-9.45-10.35-9.45-16.38S2780.66,331.69,2785.87,334.7Z"/>
                <path class="cls-15" d="M2779.94,342.19c0-3.78,2.65-5.31,5.92-3.42a13.08,13.08,0,0,1,5.93,10.26c0,3.78-2.65,5.31-5.93,3.42A13.09,13.09,0,0,1,2779.94,342.19Z"/>
              </g>
            </g>
            <g>
              <path class="cls-13" d="M2852.63,372.09c0,9.79,6.86,21.69,15.34,26.6s15.36.94,15.36-8.84-6.85-21.69-15.33-26.6S2852.64,362.31,2852.63,372.09Z"/>
              <rect class="cls-13" x="2857.17" y="362.16" width="11.59" height="43.42" transform="translate(191.63 1482.9) rotate(-30)"/>
              <g>
                <path class="cls-14" d="M2848.15,381.11c0-6.24,4.38-8.77,9.79-5.65s9.79,10.72,9.79,17-4.38,8.77-9.79,5.65S2848.15,387.36,2848.15,381.11Z"/>
                <path class="cls-13" d="M2857.93,404.48c8.48,4.91,15.36.95,15.36-8.83s-6.85-21.7-15.33-26.6-15.36-.95-15.37,8.84S2849.45,399.58,2857.93,404.48Zm0-28.62c5.22,3,9.45,10.35,9.44,16.37s-4.24,8.46-9.46,5.44-9.44-10.34-9.44-16.37S2852.73,372.84,2858,375.86Z"/>
                <path class="cls-15" d="M2852,383.35c0-3.78,2.65-5.31,5.92-3.42a13.08,13.08,0,0,1,5.93,10.26c0,3.77-2.65,5.31-5.93,3.42A13.11,13.11,0,0,1,2852,383.35Z"/>
              </g>
            </g>
            <polygon class="cls-16" points="2885.68 325.54 2885.68 392.46 2766.6 324.13 2766.6 299.27 2830.18 335.98 2832.74 325.93 2839.5 299.29 2857.56 309.55 2885.68 325.54"/>
            <path class="cls-13" d="M2880.1,319.59v.1a2.13,2.13,0,0,1-.65,1.72s0,0-.06,0a1.94,1.94,0,0,1-2.13-.12l-34-19.62-.1-.06a6.29,6.29,0,0,1-2.74-4.85v-4.41a2,2,0,0,1,.67-1.72,1.45,1.45,0,0,1,.31-.18,2.11,2.11,0,0,1,1.86.27l9.38,5.42,20.89,12.06A14.48,14.48,0,0,1,2880.1,319.59Z"/>
            <path class="cls-13" d="M2880.73,319.93l7.24-58c.19-1.55-.47-3.11-1.51-3.53l-3.63-1.48c-1.09-.45-2.17.53-2.38,2.17l-7.31,57.05a3.64,3.64,0,0,0,1.22,3.39l3.7,2.44C2879.22,322.72,2880.5,321.75,2880.73,319.93Z"/>
            <g>
              <path class="cls-13" d="M2879.13,330.66c0,1.3-.91,1.83-2,1.18l-14.65-8.46a4.51,4.51,0,0,1-2-3.54h0c0-1.3.91-1.83,2-1.18l14.65,8.46a4.5,4.5,0,0,1,2,3.54Z"/>
              <path class="cls-13" d="M2879.13,338.71c0,1.3-.91,1.83-2,1.18l-14.65-8.46a4.51,4.51,0,0,1-2-3.54h0c0-1.31.91-1.83,2-1.18l14.65,8.45a4.53,4.53,0,0,1,2,3.55Z"/>
              <path class="cls-13" d="M2879.13,346.75c0,1.31-.91,1.84-2,1.18l-14.65-8.45a4.51,4.51,0,0,1-2-3.54h0c0-1.31.91-1.84,2-1.19l14.65,8.46a4.51,4.51,0,0,1,2,3.54Z"/>
              <path class="cls-13" d="M2879.13,354.8c0,1.3-.91,1.83-2,1.18l-14.65-8.46a4.5,4.5,0,0,1-2-3.54h0c0-1.3.91-1.83,2-1.18l14.65,8.46a4.51,4.51,0,0,1,2,3.54Z"/>
            </g>
            <path class="cls-17" d="M2809,313.6c2.32,1.33,2.32,3.5,0,4.83a9.22,9.22,0,0,1-8.37,0c-2.31-1.33-2.31-3.5,0-4.83A9.22,9.22,0,0,1,2809,313.6Z"/>
            <path class="cls-18" d="M2806.51,315.31c-.26,1.42-3.08,1.23-2.81-.4l7.05-49.27,2.81-1.7Z"/>
          </g>
        </g>
        <g>
          <g>
            <path class="cls-2" d="M2727.93,203.34c-.25,1.39-3,1.2-2.75-.4l7.33-52.33,2.75.39Z"/>
            <g>
              <path class="cls-2" d="M2796.86,249.09c0,9.59,6.72,21.26,15,26.06s15.05.93,15.05-8.66-6.72-21.25-15-26.06S2796.86,239.5,2796.86,249.09Z"/>
              <rect class="cls-2" x="2801.3" y="239.36" width="11.36" height="42.55" transform="translate(245.75 1438.4) rotate(-30)"/>
              <g>
                <path class="cls-2" d="M2792.47,257.93c0-6.11,4.29-8.6,9.59-5.54s9.6,10.5,9.6,16.62-4.3,8.6-9.6,5.54S2792.47,264.05,2792.47,257.93Z"/>
                <path class="cls-2" d="M2802.05,280.83c8.31,4.81,15,.93,15-8.66s-6.71-21.25-15-26.06-15-.93-15.05,8.66S2793.74,276,2802.05,280.83Zm0-28c5.11,3,9.26,10.14,9.25,16s-4.15,8.29-9.27,5.33-9.25-10.14-9.25-16.05S2797,249.83,2802.07,252.78Z"/>
                <path class="cls-2" d="M2796.26,260.12c0-3.7,2.6-5.2,5.8-3.35a12.82,12.82,0,0,1,5.81,10.05c0,3.7-2.6,5.2-5.81,3.35A12.84,12.84,0,0,1,2796.26,260.12Z"/>
              </g>
            </g>
            <path class="cls-2" d="M2742.48,144.8l-.14,0a20.45,20.45,0,0,0-4-.77,23.17,23.17,0,0,0-8.48.88c-1.7.49-3.27,1.74-3.43,3.43a4,4,0,0,0,.56,2.89c.56,1,2.38,1.11,4.92,1.55.82.14,1.61.18,2.45.35.55.12,4.25.85,4.79,1a19.49,19.49,0,0,0,2.6.79c2.71.56,5.87-.88,6.63-3.69a4,4,0,0,0-.84-3.68C2746.29,146.09,2744.26,145.34,2742.48,144.8Z"/>
            <path class="cls-2" d="M2780,159.6c-1.12,3.81-6.14,8.07-10,7l-.42-.13-4-1.16-2.4-.7-10.83-3.17-3.13-.92c-3.12-.92-4.85-2-5.25-3.94,0-.17-.05-.33-.06-.5a4.91,4.91,0,0,1,0-.94s.35-5.46,2.93-8a4.41,4.41,0,0,1,4.79-1l16.5,4.86,5.27,1.54.64.19a7.57,7.57,0,0,0,3,.05c1.81-.23,3.38-.55,3.7,1.11a18.34,18.34,0,0,1-.56,4.66C2780.15,159,2780.06,159.35,2780,159.6Z"/>
            <polygon class="cls-2" points="2787.57 175.49 2778.44 211.45 2716.15 175.49 2716.15 199.85 2832.83 266.81 2832.83 242.44 2832.83 201.22 2787.57 175.49"/>
            <polygon class="cls-2" points="2832.83 201.22 2832.83 266.81 2766.46 305.12 2766.46 239.53 2832.83 201.22"/>
            <polygon class="cls-2" points="2778.44 211.45 2716.15 175.49 2649.79 213.8 2712.07 249.76 2778.44 211.45"/>
            <g>
              <polygon class="cls-2" points="2706.96 182.22 2659.97 209.34 2659.97 170.74 2706.96 143.61 2706.96 182.22"/>
              <polygon class="cls-2" points="2676.88 180.5 2659.97 170.74 2659.97 209.34 2676.88 219.11 2676.88 180.5"/>
              <polygon class="cls-2" points="2723.87 191.98 2676.88 219.11 2676.88 180.5 2723.87 153.37 2723.87 191.98"/>
              <polygon class="cls-2" points="2706.96 143.61 2659.97 170.74 2676.88 180.5 2723.87 153.37 2706.96 143.61"/>
            </g>
            <g>
              <path class="cls-2" d="M2742.7,208l-11.38,3.9c-7.16-1.11-11.61,1.58-11.19,5.56h0c0,.86.77,2.85,2,3.39l13,5.78a8.67,8.67,0,0,0,7.82-.83c1.09-.79,1.41-2.92,1.24-3.79h0Z"/>
              <path class="cls-2" d="M2732.31,205.31c-4.29.32-5.79,3.47-3.37,7a14.93,14.93,0,0,0,12.15,5.84c4.29-.33,5.8-3.47,3.37-7A14.89,14.89,0,0,0,2732.31,205.31Z"/>
              <path class="cls-2" d="M2745.37,215.66c5.72-13,15.94-42.89,15.76-44.7-.19-2.05-.69-5.07-1.82-6.79-1.58-2.43-3.61-4.88-6.44-5.51a8.52,8.52,0,0,0-9,3.53c-1.91,2.93-15.51,43.16-15.72,45.22s-.22,2,1.37,3.29Z"/>
            </g>
            <g>
              <path class="cls-2" d="M2723.25,219.18l-11.37,3.9c-7.16-1.1-11.62,1.59-11.2,5.57h0c0,.86.62,2.83,1.82,3.36l13,5.78a8.7,8.7,0,0,0,7.82-.82,4.62,4.62,0,0,0,1.39-3.77h0Z"/>
              <path class="cls-2" d="M2712.86,216.53c-4.29.33-5.79,3.47-3.37,7a14.89,14.89,0,0,0,12.15,5.83c4.29-.33,5.8-3.47,3.37-7A14.9,14.9,0,0,0,2712.86,216.53Z"/>
              <path class="cls-2" d="M2741.68,182.19c.06.64-1.2,4.9-3.13,10.7-3.43,10.35-9,25.66-12.62,34h0l-1.93-.6-11.18-3.51-2.68-.85c-1.57-1.3-1.59-1.22-1.37-3.23v-.06c.14-1.4,6.44-20.34,11.08-33.31a122.72,122.72,0,0,1,4.63-11.9,8.29,8.29,0,0,1,4-3.17,8.58,8.58,0,0,1,5-.36,4,4,0,0,1,.85.26.35.35,0,0,1,.18.06l.54.24a10.35,10.35,0,0,1,3.19,2.65,24.65,24.65,0,0,1,1.7,2.29,7,7,0,0,1,.77,1.63A22,22,0,0,1,2741.68,182.19Z"/>
            </g>
            <g>
              <path class="cls-2" d="M2663.45,244.83c0,9.59,6.72,21.25,15,26.06s15.05.93,15.05-8.66-6.71-21.26-15-26.07S2663.46,235.24,2663.45,244.83Z"/>
              <rect class="cls-2" x="2667.89" y="235.09" width="11.36" height="42.55" transform="translate(230 1371.13) rotate(-30)"/>
              <g>
                <path class="cls-2" d="M2659.06,253.67c0-6.12,4.29-8.6,9.59-5.54s9.6,10.5,9.6,16.62-4.3,8.59-9.6,5.53S2659.06,259.79,2659.06,253.67Z"/>
                <path class="cls-2" d="M2668.64,276.57c8.31,4.81,15.05.93,15.05-8.66s-6.71-21.26-15-26.07-15.05-.92-15.06,8.67S2660.33,271.76,2668.64,276.57Zm0-28c5.11,3,9.26,10.14,9.25,16s-4.15,8.29-9.27,5.34-9.25-10.14-9.25-16S2663.55,245.56,2668.66,248.52Z"/>
                <path class="cls-2" d="M2662.85,255.86c0-3.7,2.6-5.2,5.8-3.35a12.82,12.82,0,0,1,5.81,10.05c0,3.7-2.6,5.2-5.81,3.35A12.84,12.84,0,0,1,2662.85,255.86Z"/>
              </g>
            </g>
            <g>
              <path class="cls-2" d="M2734.08,285.16c0,9.59,6.72,21.25,15,26.06s15,.93,15-8.66-6.71-21.26-15-26.07S2734.09,275.57,2734.08,285.16Z"/>
              <rect class="cls-2" x="2738.52" y="275.42" width="11.36" height="42.55" transform="translate(219.3 1411.84) rotate(-30)"/>
              <g>
                <path class="cls-2" d="M2729.69,294c0-6.12,4.29-8.6,9.59-5.54s9.6,10.5,9.6,16.62-4.3,8.59-9.6,5.53S2729.69,300.12,2729.69,294Z"/>
                <path class="cls-2" d="M2739.27,316.9c8.31,4.81,15.05.93,15.05-8.66s-6.71-21.26-15-26.07-15.05-.92-15.06,8.67S2731,312.09,2739.27,316.9Zm0-28c5.12,3,9.26,10.14,9.25,16s-4.15,8.29-9.27,5.34-9.25-10.15-9.25-16.05S2734.18,285.89,2739.29,288.85Z"/>
                <path class="cls-2" d="M2733.48,296.19c0-3.7,2.6-5.2,5.8-3.35a12.82,12.82,0,0,1,5.81,10.05c0,3.7-2.6,5.2-5.81,3.35A12.84,12.84,0,0,1,2733.48,296.19Z"/>
              </g>
            </g>
            <polygon class="cls-2" points="2766.46 239.54 2766.46 305.12 2649.78 238.16 2649.78 213.8 2712.08 249.77 2714.59 239.92 2721.21 213.82 2738.91 223.87 2766.46 239.54"/>
            <polygon class="cls-2" points="2832.84 201.22 2766.46 239.54 2738.91 223.87 2721.21 213.82 2752.43 195.8 2768.23 186.67 2773.72 183.5 2787.57 175.49 2832.84 201.22"/>
            <path class="cls-19" d="M2789.12,182s-.16,19.95-.83,22.76a7.08,7.08,0,0,1-1.65-1.34,4.21,4.21,0,0,0,.11-1.27l0-1.53a.51.51,0,0,0,0-.13s-.06-1.86-.16-4.85l-.11-3.79,0,0c0-.12,0-.26,0-.39-.23-6.28-1-17.71-1.54-26.58-.17-2.84-.31-5.41-.39-7.48.16.56.46,2,.82,3.81.19.95.4,2,.62,3.18C2787.32,171.71,2789.12,182,2789.12,182Z"/>
            <g>
              <path class="cls-2" d="M2765.66,188.26l33.3,19.22c1.54.89,2.78.17,2.78-1.6v-.11a14.19,14.19,0,0,0-6.42-11.12l-29.66-17.12c-1.53-.89-2.78-.17-2.78,1.6v4.31A6.14,6.14,0,0,0,2765.66,188.26Z"/>
              <path class="cls-2" d="M2801.17,207.48l0,0-.44.26-30,17.35s0,0-.06,0l-28.87-23.21-8.63-6.95a1.19,1.19,0,0,1,.3-.18l7.77-4.49,22.29-12.88.28-.16Z"/>
              <path class="cls-2" d="M2771.38,223.33v.1a2.05,2.05,0,0,1-.65,1.68s0,0-.06,0a1.89,1.89,0,0,1-2.08-.12l-33.29-19.22-.1-.06a6.14,6.14,0,0,1-2.69-4.76v-4.31a2,2,0,0,1,.66-1.69,1.19,1.19,0,0,1,.3-.18,2.1,2.1,0,0,1,1.83.26l9.19,5.32L2765,212.21A14.17,14.17,0,0,1,2771.38,223.33Z"/>
            </g>
            <polygon class="cls-2" points="2785.68 192.51 2771.42 211.53 2768.57 209.9 2748.08 198.31 2737.65 192.39 2727.13 186.43 2734.26 170.13 2768.59 185.06 2773.82 187.35 2785.68 192.51"/>
            <path class="cls-20" d="M2735.2,205.75l-14,8.07-6.62,26.1-2.77-1.54c4.66-22.16,10-43.12,21.35-54.24a59.26,59.26,0,0,0,8.07,6.18l-7.77,4.49a1.19,1.19,0,0,0-.3.18,2,2,0,0,0-.66,1.69V201A6.14,6.14,0,0,0,2735.2,205.75Z"/>
            <path class="cls-20" d="M2752.43,195.8l-4.35,2.51-10.43-5.92,3.59-2.07A51.8,51.8,0,0,0,2752.43,195.8Z"/>
            <path class="cls-20" d="M2774.09,186.25l-.27,1.1-5.25,22.55-20.49-11.59,4.35-2.51a56.34,56.34,0,0,0,10.46,2.49c2.41-2.25,4.07-6.43,5.34-11.62.12-.52.24-1.07.36-1.61,1.22-5.6,2-12.2,2.85-18.84l2.28,17.28Z"/>
            <polygon class="cls-2" points="2818.41 269.75 2791.8 285.12 2791.8 263.86 2818.41 248.49 2818.41 269.75"/>
            <g>
              <path class="cls-2" d="M2805.27,204.31l7.1-56.85c.19-1.52-.46-3-1.48-3.46l-3.56-1.45c-1.07-.44-2.12.53-2.33,2.12l-7.16,55.92a3.57,3.57,0,0,0,1.19,3.32l3.63,2.39C2803.79,207.05,2805.05,206.09,2805.27,204.31Z"/>
              <polygon class="cls-2" points="2773.1 161.87 2806.07 142.67 2804.15 206.35 2771.02 225.61 2773.1 161.87"/>
              <path class="cls-2" d="M2772,223.66l7.09-56.84c.19-1.52-.46-3-1.47-3.46l-3.56-1.46c-1.07-.43-2.13.53-2.33,2.13l-7.16,55.91a3.57,3.57,0,0,0,1.19,3.32l3.63,2.39C2770.51,226.4,2771.77,225.44,2772,223.66Z"/>
            </g>
            <g>
              <path class="cls-2" d="M2760.05,244.56c0,1.27-.9,1.79-2,1.15l-14.35-8.28a4.46,4.46,0,0,1-2-3.47h0c0-1.28.9-1.8,2-1.16l14.35,8.28a4.44,4.44,0,0,1,2,3.48Z"/>
              <path class="cls-2" d="M2760.05,252.44c0,1.28-.9,1.8-2,1.16l-14.35-8.29a4.41,4.41,0,0,1-2-3.47h0c0-1.28.9-1.79,2-1.16L2758,249a4.42,4.42,0,0,1,2,3.47Z"/>
              <path class="cls-2" d="M2760.05,260.33c0,1.27-.9,1.79-2,1.15l-14.35-8.28a4.43,4.43,0,0,1-2-3.47h0c0-1.28.89-1.8,2-1.16l14.35,8.29a4.42,4.42,0,0,1,2,3.47Z"/>
              <path class="cls-2" d="M2760.05,268.21c0,1.28-.9,1.8-2,1.16l-14.35-8.29a4.41,4.41,0,0,1-2-3.47h0c0-1.28.89-1.79,2-1.15l14.35,8.28a4.42,4.42,0,0,1,2,3.47Z"/>
            </g>
            <path class="cls-2" d="M2707.68,211.43c2.27,1.31,2.27,3.43,0,4.74a9,9,0,0,1-8.2,0c-2.27-1.31-2.27-3.43,0-4.74A9.11,9.11,0,0,1,2707.68,211.43Z"/>
            <path class="cls-2" d="M2705.28,213.11c-.25,1.39-3,1.21-2.75-.39l6.92-48.28,2.75-1.67Z"/>
            <path class="cls-20" d="M2763.57,187.47c.06.32.14.62.2.94-.42-.3-.82-.58-1.24-.86-2.11-1.46-4.22-2.81-6.3-4a56,56,0,0,0-15.59-6.5,34.77,34.77,0,0,0-8.13-1,6.22,6.22,0,0,0-.86.06c-4.32.48-8.13,4.38-11.82,9.23a122.72,122.72,0,0,1,4.63-11.9,8.29,8.29,0,0,1,4-3.17l-.33-.1-3.13-.92-1.1-.36a46.06,46.06,0,0,1,15.19-10.54l4.82,1.43.16,0,2-4.09a85.16,85.16,0,0,1,9.23-2.33l4.14-2.47,7.3-4.39c-3.39,12.42-5.26,24.54-4,36C2763,184.22,2763.25,185.84,2763.57,187.47Z"/>
            <path class="cls-2" d="M2756.15,166.2v.08c-.06.36-.14.7-.2,1s-.18.81-.27,1.07a7.85,7.85,0,0,1-1,2.08l0,0c-1.78,2.85-5.22,5.32-8.19,5h0a3,3,0,0,1-.74-.14l-.42-.12-4-1.16-2.39-.71-.78-.22-4.62-1.36-5.11-1.49-.33-.1-3.13-.92-1.1-.36c-2.43-.84-3.81-1.89-4.15-3.59l-.06-.48a7.52,7.52,0,0,1,0-1s.34-5.46,2.93-8a4.38,4.38,0,0,1,4.79-1l11.68,3.43,4.82,1.43.16,0,5.11,1.5.65.18a7.16,7.16,0,0,0,3,.06c1.42-.18,2.7-.42,3.33.31a1.56,1.56,0,0,1,.36.8A13.28,13.28,0,0,1,2756.15,166.2Z"/>
          </g>
          <path class="cls-21" d="M2706.83,166.55l-10.75-4.75a6.84,6.84,0,0,1-3.84-8.85h0a6.84,6.84,0,0,1,8.85-3.85l10.64,4.19c3.35.62-4.88-1.44-6.33,4.51l-.81,3.75A4.13,4.13,0,0,0,2706.83,166.55Z"/>
          <g>
            <g>
              <path class="cls-22" d="M2661.61,148.18l-61.87-38.48a4.43,4.43,0,0,1-2.11-3.22l64,36.94Z"/>
              <polygon class="cls-23" points="2597.63 106.48 2661.61 148.18 2649.83 154.98 2585.85 113.28 2597.63 106.48"/>
              <path class="cls-9" d="M2649.83,155,2588,116.5a4.41,4.41,0,0,1-2.12-3.22l64,36.94Z"/>
            </g>
            <g>
              <path class="cls-22" d="M2704.63,123.93l-61.86-38.48a4.41,4.41,0,0,1-2.12-3.22l64,36.94Z"/>
              <polygon class="cls-22" points="2640.65 82.23 2704.63 123.93 2692.86 130.73 2628.88 89.03 2640.65 82.23"/>
              <path class="cls-9" d="M2692.86,130.73,2631,92.25a4.43,4.43,0,0,1-2.11-3.22l64,36.94Z"/>
            </g>
            <g>
              <polygon class="cls-24" points="2701.94 84.17 2701.94 108.54 2673.16 125.16 2671.65 126.03 2640.7 143.9 2640.7 119.54 2671.65 101.67 2673.16 100.79 2701.94 84.17"/>
              <polygon class="cls-25" points="2701.94 84.17 2673.16 100.79 2671.65 101.67 2640.7 119.54 2620.4 107.82 2618.89 106.94 2597.33 94.49 2628.28 76.63 2629.78 75.76 2658.57 59.14 2680.26 71.67 2681.78 72.54 2701.94 84.17"/>
              <polygon class="cls-10" points="2597.33 118.86 2640.7 143.9 2640.7 119.53 2597.33 94.49 2597.33 118.86"/>
              <polygon class="cls-11" points="2640.7 143.9 2640.7 119.53 2619.01 119.2 2640.7 143.9"/>
              <polygon class="cls-11" points="2597.33 94.49 2597.33 118.86 2619.01 119.2 2597.33 94.49"/>
              <polygon class="cls-12" points="2640.7 143.9 2620.4 132.18 2618.89 131.31 2597.33 118.86 2618.89 115.59 2619.01 115.58 2620.4 117.39 2640.7 143.9"/>
              <path class="cls-10" d="M2640.7,119.53l-43.37-25,19.9,25.87a5,5,0,0,0,4.67,1.9Z"/>
              <polygon class="cls-6" points="2626.64 91.48 2614.59 98.44 2606.05 93.51 2618.1 86.55 2626.64 91.48"/>
              <polygon class="cls-26" points="2608.19 93.63 2618.32 87.79 2624.5 91.36 2614.38 97.2 2608.19 93.63"/>
              <g class="cls-27">
                <polygon class="cls-13" points="2659.65 64.26 2638.8 76.3 2637.49 75.54 2658.34 63.5 2659.65 64.26"/>
                <polygon class="cls-13" points="2657.98 68.49 2641.63 77.93 2640.32 77.18 2656.68 67.73 2657.98 68.49"/>
                <polygon class="cls-13" points="2655.05 73.44 2644.45 79.56 2643.15 78.81 2653.75 72.69 2655.05 73.44"/>
                <polygon class="cls-13" points="2663.64 71.75 2647.28 81.19 2645.98 80.44 2662.33 71 2663.64 71.75"/>
              </g>
              <polygon class="cls-13" points="2681.78 72.54 2652.97 89.09 2651.46 89.96 2620.4 107.82 2620.4 132.18 2618.89 131.31 2618.89 106.94 2649.94 89.09 2651.46 88.22 2680.26 71.67 2681.78 72.54"/>
              <polygon class="cls-13" points="2673.16 100.69 2673.16 125.16 2671.65 126.03 2671.65 101.57 2651.46 89.96 2649.94 89.09 2628.28 76.63 2629.78 75.76 2651.46 88.22 2652.97 89.09 2673.16 100.69"/>
            </g>
            <g>
              <polygon class="cls-24" points="2705.59 55.89 2705.59 80.25 2676.81 96.87 2675.3 97.75 2644.35 115.61 2644.35 91.25 2675.3 73.38 2676.81 72.51 2705.59 55.89"/>
              <polygon class="cls-25" points="2705.59 55.89 2676.81 72.51 2675.3 73.38 2644.35 91.25 2624.06 79.53 2622.55 78.66 2600.99 66.21 2631.93 48.34 2633.44 47.47 2662.23 30.85 2683.92 43.38 2685.43 44.25 2705.59 55.89"/>
              <polygon class="cls-10" points="2600.99 90.57 2644.36 115.61 2644.35 91.25 2600.99 66.21 2600.99 90.57"/>
              <polygon class="cls-11" points="2644.36 115.61 2644.35 91.25 2622.67 90.91 2644.36 115.61"/>
              <polygon class="cls-11" points="2600.99 66.21 2600.99 90.57 2622.67 90.91 2600.99 66.21"/>
              <polygon class="cls-12" points="2644.35 115.61 2624.06 103.9 2622.55 103.02 2600.99 90.57 2622.55 87.31 2622.67 87.29 2624.06 89.1 2644.35 115.61"/>
              <path class="cls-10" d="M2644.35,91.25l-43.36-25,19.9,25.87a5,5,0,0,0,4.67,1.89Z"/>
              <polygon class="cls-6" points="2630.3 63.19 2618.24 70.16 2609.7 65.22 2621.76 58.26 2630.3 63.19"/>
              <polygon class="cls-26" points="2611.85 65.35 2621.97 59.5 2628.15 63.07 2618.03 68.92 2611.85 65.35"/>
              <g class="cls-27">
                <polygon class="cls-13" points="2663.3 35.97 2642.45 48.01 2641.15 47.26 2662 35.22 2663.3 35.97"/>
                <polygon class="cls-13" points="2661.64 40.2 2645.28 49.64 2643.98 48.89 2660.33 39.45 2661.64 40.2"/>
                <polygon class="cls-13" points="2658.71 45.16 2648.11 51.27 2646.8 50.52 2657.4 44.4 2658.71 45.16"/>
                <polygon class="cls-13" points="2667.29 43.47 2650.94 52.91 2649.63 52.16 2665.99 42.71 2667.29 43.47"/>
              </g>
              <polygon class="cls-13" points="2685.43 44.25 2656.63 60.8 2655.11 61.68 2624.06 79.53 2624.06 103.9 2622.55 103.02 2622.55 78.66 2653.6 60.8 2655.11 59.94 2683.92 43.38 2685.43 44.25"/>
              <polygon class="cls-13" points="2676.81 72.41 2676.81 96.87 2675.3 97.75 2675.3 73.28 2655.11 61.68 2653.6 60.8 2631.93 48.34 2633.44 47.47 2655.11 59.94 2656.63 60.8 2676.81 72.41"/>
            </g>
            <g>
              <g>
                <polygon class="cls-24" points="2670.39 72.13 2697.14 56.68 2697.14 20.68 2670.39 36.13 2670.39 72.13"/>
                <polygon class="cls-10" points="2634.56 51.45 2670.39 72.13 2670.39 36.13 2634.56 15.45 2634.56 51.45"/>
                <polygon class="cls-25" points="2634.56 15.45 2651 24.94 2652.53 25.82 2670.39 36.13 2697.14 20.68 2679.28 10.38 2677.75 9.49 2661.32 0 2634.56 15.45"/>
                <polygon class="cls-12" points="2683.76 42.92 2670.39 72.13 2697.14 56.68 2683.76 42.92"/>
                <path class="cls-10" d="M2697.14,20.68l-26.75,15.45,9.81,10.7a3.46,3.46,0,0,0,5.71-.93Z"/>
              </g>
              <polygon class="cls-6" points="2660.25 39.74 2667.46 43.91 2667.46 38.21 2660.25 34.05 2660.25 39.74"/>
            </g>
            <g>
              <g>
                <polygon class="cls-24" points="2643.14 88.81 2669.9 73.36 2669.9 37.36 2643.14 52.81 2643.14 88.81"/>
                <polygon class="cls-10" points="2607.31 68.12 2643.14 88.81 2643.14 52.81 2607.31 32.12 2607.31 68.12"/>
                <polygon class="cls-25" points="2607.31 32.12 2623.75 41.62 2625.28 42.5 2643.14 52.81 2669.89 37.36 2652.04 27.05 2650.51 26.17 2634.07 16.68 2607.31 32.12"/>
                <polygon class="cls-12" points="2656.52 59.59 2643.14 88.81 2669.9 73.36 2656.52 59.59"/>
                <path class="cls-10" d="M2669.9,37.36l-26.76,15.45,9.82,10.7a3.46,3.46,0,0,0,5.7-.93Z"/>
              </g>
              <polygon class="cls-6" points="2633.01 56.42 2640.22 60.58 2640.22 54.89 2633.01 50.73 2633.01 56.42"/>
            </g>
            <path class="cls-18" d="M2724,199.78c-.25,1.39-3,1.2-2.75-.39l7.34-52.33,2.75.39Z"/>
            <g>
              <path class="cls-13" d="M2792.88,245.54c0,9.59,6.72,21.25,15,26.06s15.05.93,15.05-8.66-6.71-21.26-15-26.07S2792.89,236,2792.88,245.54Z"/>
              <rect class="cls-13" x="2797.32" y="235.8" width="11.36" height="42.55" transform="translate(246.99 1435.94) rotate(-30)"/>
              <g>
                <path class="cls-14" d="M2788.49,254.38c0-6.12,4.29-8.6,9.59-5.54s9.6,10.5,9.6,16.62-4.3,8.59-9.6,5.53S2788.49,260.5,2788.49,254.38Z"/>
                <path class="cls-13" d="M2798.07,277.28c8.31,4.8,15,.93,15-8.66s-6.71-21.26-15-26.07-15-.92-15.06,8.67S2789.76,272.47,2798.07,277.28Zm0-28c5.12,3,9.26,10.14,9.25,16s-4.15,8.29-9.27,5.34-9.25-10.14-9.25-16.05S2793,246.27,2798.09,249.23Z"/>
                <path class="cls-15" d="M2792.28,256.57c0-3.7,2.6-5.2,5.8-3.35a12.82,12.82,0,0,1,5.81,10c0,3.7-2.6,5.2-5.81,3.35A12.84,12.84,0,0,1,2792.28,256.57Z"/>
              </g>
            </g>
            <path class="cls-21" d="M2738.5,141.25l-.14,0a19.75,19.75,0,0,0-4-.77,23.19,23.19,0,0,0-8.48.88c-1.69.49-3.27,1.74-3.43,3.43a3.93,3.93,0,0,0,.56,2.88c.56,1,2.38,1.12,4.93,1.56.81.14,1.61.17,2.44.35.56.11,4.26.85,4.79,1a21.62,21.62,0,0,0,2.6.79c2.71.56,5.87-.88,6.64-3.69a4.07,4.07,0,0,0-.85-3.68C2742.31,142.53,2740.29,141.79,2738.5,141.25Z"/>
            <path class="cls-28" d="M2776,156.05c-1.12,3.81-6.14,8.06-10,6.94l-.41-.12-4-1.17-2.4-.7-10.83-3.16-3.13-.92c-3.12-.92-4.85-2-5.24-3.95a3.8,3.8,0,0,1-.06-.5,4.78,4.78,0,0,1,0-.93s.35-5.47,2.93-8a4.37,4.37,0,0,1,4.79-1l16.51,4.85,5.27,1.55.63.18a7.39,7.39,0,0,0,3,.06c1.81-.23,3.38-.55,3.7,1.11a18.39,18.39,0,0,1-.56,4.66C2776.17,155.43,2776.08,155.79,2776,156.05Z"/>
            <polygon class="cls-13" points="2783.59 171.94 2774.46 207.9 2712.17 171.93 2712.17 196.29 2828.85 263.25 2828.85 238.89 2828.85 197.66 2783.59 171.94"/>
            <polygon class="cls-29" points="2828.85 197.66 2828.85 263.25 2762.48 301.57 2762.49 235.98 2828.85 197.66"/>
            <polygon class="cls-29" points="2774.46 207.9 2712.17 171.93 2645.81 210.25 2708.1 246.21 2774.46 207.9"/>
            <g>
              <polygon class="cls-9" points="2654.59 157.72 2649.83 154.98 2649.83 133.02 2654.59 135.76 2654.59 157.72"/>
              <g>
                <polygon class="cls-18" points="2709.14 126.23 2654.59 157.72 2654.59 135.76 2709.14 104.27 2709.14 126.23"/>
                <polygon class="cls-23" points="2704.39 101.52 2649.83 133.02 2654.59 135.76 2709.14 104.27 2704.39 101.52"/>
              </g>
            </g>
            <g>
              <polygon class="cls-13" points="2676.78 70.83 2670.57 67.25 2670.57 209.27 2676.78 212.86 2676.78 70.83"/>
              <polygon class="cls-17" points="2694.04 202.9 2676.78 212.86 2676.78 70.83 2694.04 60.87 2694.04 202.9"/>
              <polygon class="cls-30" points="2687.83 57.28 2670.57 67.25 2676.78 70.83 2694.04 60.87 2687.83 57.28"/>
            </g>
            <g>
              <polygon class="cls-17" points="2702.98 178.66 2655.99 205.79 2655.99 167.18 2702.98 140.05 2702.98 178.66"/>
              <polygon class="cls-13" points="2672.9 176.94 2655.99 167.18 2655.99 205.79 2672.9 215.55 2672.9 176.94"/>
              <polygon class="cls-17" points="2719.89 188.42 2672.9 215.55 2672.9 176.94 2719.89 149.82 2719.89 188.42"/>
              <polygon class="cls-30" points="2702.98 140.05 2655.99 167.18 2672.9 176.94 2719.89 149.82 2702.98 140.05"/>
            </g>
            <g>
              <path class="cls-13" d="M2738.72,204.4l-11.37,3.91c-7.16-1.11-11.62,1.58-11.2,5.56h0c0,.86.77,2.86,2,3.39l13,5.78a8.7,8.7,0,0,0,7.82-.82c1.09-.79,1.42-2.93,1.24-3.79h0Z"/>
              <path class="cls-31" d="M2728.33,201.75c-4.29.33-5.79,3.47-3.37,7a14.89,14.89,0,0,0,12.15,5.83c4.29-.32,5.8-3.46,3.37-7A14.9,14.9,0,0,0,2728.33,201.75Z"/>
              <path class="cls-32" d="M2741.4,212.1c5.71-13,15.93-42.89,15.76-44.69-.2-2-.7-5.07-1.82-6.79-1.59-2.43-3.62-4.88-6.45-5.51a8.49,8.49,0,0,0-8.95,3.53c-1.92,2.93-15.51,43.15-15.73,45.21s-.21,2,1.37,3.29Z"/>
            </g>
            <g>
              <path class="cls-13" d="M2719.27,215.63l-11.37,3.9c-7.16-1.11-11.62,1.58-11.2,5.57h0c0,.86.62,2.82,1.82,3.36l13,5.78a8.67,8.67,0,0,0,7.82-.83,4.6,4.6,0,0,0,1.39-3.76h0Z"/>
              <path class="cls-28" d="M2708.88,213c-4.28.33-5.79,3.47-3.37,7a14.93,14.93,0,0,0,12.15,5.84c4.29-.33,5.8-3.47,3.37-7A14.86,14.86,0,0,0,2708.88,213Z"/>
              <path class="cls-28" d="M2737.7,178.64c.06.64-1.2,4.89-3.13,10.69-3.43,10.36-9,25.67-12.62,34h0l-1.93-.61-11.17-3.51-2.69-.84c-1.57-1.31-1.59-1.22-1.37-3.23v-.06c.14-1.41,6.44-20.35,11.08-33.31a124.43,124.43,0,0,1,4.63-11.9,8.17,8.17,0,0,1,4-3.17,8.58,8.58,0,0,1,5-.36,3.82,3.82,0,0,1,.85.26.32.32,0,0,1,.18.06l.54.24a10.1,10.1,0,0,1,3.19,2.65,22.24,22.24,0,0,1,1.7,2.29,6.75,6.75,0,0,1,.77,1.62A22,22,0,0,1,2737.7,178.64Z"/>
            </g>
            <g>
              <path class="cls-13" d="M2659.47,241.28c0,9.58,6.72,21.25,15,26.06s15.05.92,15.05-8.67-6.71-21.25-15-26.06S2659.48,231.69,2659.47,241.28Z"/>
              <rect class="cls-13" x="2663.91" y="231.54" width="11.36" height="42.55" transform="translate(231.25 1368.66) rotate(-30)"/>
              <g>
                <path class="cls-14" d="M2655.08,250.11c0-6.11,4.29-8.59,9.59-5.53s9.6,10.5,9.6,16.61-4.29,8.6-9.6,5.54S2655.08,256.23,2655.08,250.11Z"/>
                <path class="cls-13" d="M2664.66,273c8.31,4.8,15.05.92,15.05-8.67s-6.71-21.25-15-26.06-15.05-.92-15.06,8.67S2656.35,268.21,2664.66,273Zm0-28c5.12,2.95,9.26,10.14,9.26,16s-4.16,8.29-9.27,5.33-9.26-10.14-9.26-16S2659.57,242,2664.68,245Z"/>
                <path class="cls-15" d="M2658.87,252.3c0-3.7,2.6-5.2,5.8-3.35a12.82,12.82,0,0,1,5.81,10.05c0,3.71-2.6,5.21-5.81,3.36A12.85,12.85,0,0,1,2658.87,252.3Z"/>
              </g>
            </g>
            <g>
              <path class="cls-13" d="M2730.1,281.6c0,9.59,6.72,21.26,15,26.07s15,.92,15-8.67-6.71-21.25-15-26.06S2730.11,272,2730.1,281.6Z"/>
              <rect class="cls-13" x="2734.54" y="271.87" width="11.36" height="42.55" transform="translate(220.55 1409.38) rotate(-30)"/>
              <g>
                <path class="cls-14" d="M2725.71,290.44c0-6.11,4.29-8.59,9.6-5.53s9.59,10.5,9.59,16.61-4.29,8.6-9.6,5.54S2725.71,296.56,2725.71,290.44Z"/>
                <path class="cls-13" d="M2735.29,313.35c8.31,4.8,15.05.92,15.06-8.67s-6.72-21.25-15-26.06-15.05-.92-15.06,8.67S2727,308.54,2735.29,313.35Zm0-28.05c5.12,2.95,9.26,10.14,9.26,16s-4.16,8.29-9.27,5.33-9.26-10.14-9.26-16S2730.2,282.34,2735.31,285.3Z"/>
                <path class="cls-15" d="M2729.5,292.63c0-3.7,2.6-5.2,5.8-3.35a12.82,12.82,0,0,1,5.81,10.05c0,3.71-2.6,5.21-5.81,3.36A12.87,12.87,0,0,1,2729.5,292.63Z"/>
              </g>
            </g>
            <polygon class="cls-16" points="2762.48 235.99 2762.48 301.56 2645.8 234.6 2645.8 210.24 2708.1 246.22 2710.61 236.37 2717.23 210.26 2734.93 220.31 2762.48 235.99"/>
            <polygon class="cls-33" points="2828.86 197.66 2762.48 235.99 2734.93 220.31 2717.23 210.26 2748.46 192.24 2764.25 183.11 2769.75 179.94 2783.59 171.94 2828.86 197.66"/>
            <path class="cls-34" d="M2785.14,178.45s-.16,19.94-.82,22.75a7.09,7.09,0,0,1-1.65-1.33,4.26,4.26,0,0,0,.1-1.28l0-1.52a.59.59,0,0,0,0-.13s-.06-1.87-.16-4.86l-.11-3.79h0c0-.13,0-.26,0-.39-.23-6.28-1-17.71-1.54-26.59-.17-2.83-.31-5.41-.39-7.47.16.56.46,1.95.83,3.8.19,1,.39,2,.61,3.18C2783.34,168.16,2785.14,178.45,2785.14,178.45Z"/>
            <g>
              <path class="cls-18" d="M2761.68,184.71l33.3,19.22c1.54.89,2.78.17,2.78-1.61v-.1a14.19,14.19,0,0,0-6.42-11.13L2761.68,174c-1.53-.88-2.78-.17-2.78,1.61v4.31A6.18,6.18,0,0,0,2761.68,184.71Z"/>
              <path class="cls-18" d="M2797.2,203.92l0,0-.45.26-30,17.36s0,0-.06,0l-28.88-23.22-8.63-6.94a1.19,1.19,0,0,1,.3-.18l7.77-4.49,22.29-12.89.28-.16Z"/>
              <path class="cls-13" d="M2767.4,219.77v.1a2.09,2.09,0,0,1-.64,1.69s0,0-.06,0a1.91,1.91,0,0,1-2.09-.12l-33.29-19.22-.1-.06a6.15,6.15,0,0,1-2.69-4.76v-4.31a2,2,0,0,1,.66-1.69,1.19,1.19,0,0,1,.3-.18,2.1,2.1,0,0,1,1.83.26l9.19,5.32L2761,208.66A14.16,14.16,0,0,1,2767.4,219.77Z"/>
            </g>
            <polygon class="cls-28" points="2781.7 188.95 2767.44 207.97 2764.59 206.35 2744.1 194.75 2733.67 188.83 2723.15 182.87 2730.28 166.58 2764.61 181.51 2769.85 183.8 2781.7 188.95"/>
            <path class="cls-35" d="M2731.22,202.2l-14,8.06-6.62,26.11-2.77-1.55c4.66-22.15,10-43.12,21.35-54.23a60.08,60.08,0,0,0,8.07,6.18l-7.77,4.49a1.19,1.19,0,0,0-.3.18,2,2,0,0,0-.66,1.69v4.31A6.15,6.15,0,0,0,2731.22,202.2Z"/>
            <path class="cls-35" d="M2748.46,192.24l-4.36,2.51-10.43-5.92,3.59-2.06A51.61,51.61,0,0,0,2748.46,192.24Z"/>
            <path class="cls-35" d="M2770.11,182.69l-.26,1.11-5.26,22.55-20.49-11.6,4.36-2.51a54.51,54.51,0,0,0,10.45,2.49c2.41-2.25,4.07-6.42,5.34-11.62.12-.52.24-1.06.36-1.6,1.22-5.6,2-12.2,2.85-18.84l2.29,17.27Z"/>
            <polygon class="cls-36" points="2814.43 266.2 2787.82 281.56 2787.82 260.3 2814.43 244.94 2814.43 266.2"/>
            <path class="cls-28" d="M2792.07,142.73c0-.46-.1-12-.17-12.85.11.89.67-13-9.68-13a4.5,4.5,0,0,0-1,.27c-1.33.45-3.72,1.42-6.59,2.7-3.94,1.75-8.76,4-12.92,6.37a60.39,60.39,0,0,0-6.08,3.76c-2.12,1.53-3.46,2.91-3.46,3.91v3.26a40.07,40.07,0,0,0,4.1,11.64c-2.26,1.09-3.78,2.13-4.11,2.94,0,0,.13,32,.14,32.05l0,.14c.16,1.24,39.48-2.67,39.63-3.22s.18-37.79.18-37.92Z"/>
            <g>
              <path class="cls-30" d="M2801.3,200.75l7.09-56.85c.19-1.51-.46-3-1.48-3.45l-3.56-1.46c-1.07-.43-2.12.53-2.33,2.13L2793.86,197a3.57,3.57,0,0,0,1.19,3.32l3.63,2.39C2799.81,203.49,2801.07,202.53,2801.3,200.75Z"/>
              <polygon class="cls-30" points="2769.13 158.32 2802.09 139.12 2800.17 202.8 2767.05 222.05 2769.13 158.32"/>
              <path class="cls-13" d="M2768,220.11l7.1-56.85c.19-1.52-.47-3-1.48-3.46l-3.56-1.45c-1.07-.44-2.13.53-2.33,2.13l-7.16,55.91a3.57,3.57,0,0,0,1.19,3.32l3.63,2.39C2766.53,222.85,2767.79,221.89,2768,220.11Z"/>
            </g>
            <g>
              <path class="cls-21" d="M2772,106.22a37.88,37.88,0,0,1,0,6.39,12.61,12.61,0,0,1-2.13,6,9.45,9.45,0,0,1-6,3.65,8.93,8.93,0,0,1-2.25.11,5.21,5.21,0,0,1-2.15-.6,5.65,5.65,0,0,1-2.18-2.67h0c-.12-.24-.22-.48-.32-.73a52.07,52.07,0,0,1-3.58-17.61,10.38,10.38,0,0,1,.1-2.67A7.19,7.19,0,0,1,2759,92.9a14.06,14.06,0,0,1,7.79.72,6.69,6.69,0,0,1,2,.94c.55.42,1,1,1.49,1.45S2771.82,103,2772,106.22Z"/>
              <path class="cls-35" d="M2766.89,118c.15,1.27.26,2.55.38,3.83a2.06,2.06,0,0,1,0,.82,1.11,1.11,0,0,1-.22.38,8.85,8.85,0,0,1-2.24.11,5.24,5.24,0,0,1-2.16-.59,5.81,5.81,0,0,1-2.18-2.67h0c2.72,2.09,4.07-.11,3.87-6.91C2765.08,116.09,2766.52,114.83,2766.89,118Z"/>
              <rect class="cls-21" x="2761.6" y="105.51" width="14.89" height="19.27" transform="translate(4.76 314.19) rotate(-6.5)"/>
              <path class="cls-21" d="M2775,120.57c3.08,1.34,3.39,4.05.69,6.05a11.68,11.68,0,0,1-10.49,1.2c-3.09-1.35-3.4-4.06-.69-6.06A11.65,11.65,0,0,1,2775,120.57Z"/>
              <path class="cls-13" d="M2756.5,101.72c2.32,1,3.57,3.28,4.09,5.76s.43,5,.94,7.53,1.79,5,4.11,6.06a9.74,9.74,0,0,0,5.23.37c2.31-.29,5.35-.77,6-3,8.4-29.59-9.68-29.46-11.8-29.4-7.48.2-16,5.86-11.82,11.29C2753.87,101.17,2755.7,101.37,2756.5,101.72Z"/>
              <path class="cls-21" d="M2761.18,106.35a2,2,0,0,0-1.48,1.67,7.81,7.81,0,0,0,.05,2.81,7.36,7.36,0,0,0,1,3.38,1.48,1.48,0,0,0,.77.6,1.33,1.33,0,0,0,1.33-.61,3,3,0,0,0,.38-1.4,19.27,19.27,0,0,0-.09-4.16,3.62,3.62,0,0,0-.5-1.58A1.6,1.6,0,0,0,2761.18,106.35Z"/>
            </g>
            <g>
              <path class="cls-13" d="M2756.07,241c0,1.28-.9,1.8-2,1.16l-14.36-8.29a4.44,4.44,0,0,1-2-3.47h0c0-1.28.9-1.79,2-1.16l14.36,8.29a4.44,4.44,0,0,1,2,3.47Z"/>
              <path class="cls-13" d="M2756.07,248.89c0,1.28-.9,1.79-2,1.15l-14.36-8.28a4.44,4.44,0,0,1-2-3.47h0c0-1.28.9-1.8,2-1.16l14.36,8.29a4.44,4.44,0,0,1,2,3.47Z"/>
              <path class="cls-13" d="M2756.07,256.77c0,1.28-.9,1.8-2,1.16l-14.36-8.29a4.44,4.44,0,0,1-2-3.47h0c0-1.27.9-1.79,2-1.15l14.36,8.28a4.46,4.46,0,0,1,2,3.47Z"/>
              <path class="cls-13" d="M2756.07,264.66c0,1.28-.9,1.79-2,1.16l-14.36-8.29a4.44,4.44,0,0,1-2-3.47h0c0-1.28.9-1.8,2-1.16l14.36,8.29a4.44,4.44,0,0,1,2,3.47Z"/>
            </g>
            <g>
              <path class="cls-32" d="M2744.85,101c-.3,1.26,1,2.45,2.12,3s7.12,1.12,8.42,1.23c-.78-1.4-1.26-4.08-.35-5.4s7.11-4.62,8.71-4.52c-1.74-1.06-8.33-2.41-10.29-1.84C2751.3,94.11,2746.09,95.77,2744.85,101Z"/>
              <path class="cls-36" d="M2778.68,99.57a9.4,9.4,0,0,1-2.58,3,17.31,17.31,0,0,1-3.93,2.18v1.89a15.6,15.6,0,0,0,2.85-1.23,8.17,8.17,0,0,0,3.66-3.78Z"/>
              <path class="cls-28" d="M2779.06,99.52h0a5.25,5.25,0,0,1-1.15,3.6v-1.79c0-1.35-.93-1.88-2.09-1.22a4.67,4.67,0,0,0-2.12,3.65v2.44c-5.43,2.44-13.26,2.26-18.25-.62-2.59-1.49-3.92-3.44-4-5.38,0,0,0,0,0,0a15.65,15.65,0,0,1,1.31-7.79,10.89,10.89,0,0,1,2.49-3.3c2.58-2.31,7.15-3.2,10.61-3.12a12.47,12.47,0,0,1,4.42.9.43.43,0,0,1,.12,0,16.05,16.05,0,0,1,4.24,2.62,9.86,9.86,0,0,1,1.84,2.06s0,0,0,0A15.71,15.71,0,0,1,2779.06,99.52Z"/>
              <path class="cls-34" d="M2767.83,102.54a13.07,13.07,0,0,0-6.3-8.73,12.93,12.93,0,0,0-8.83-1.42,11.07,11.07,0,0,1,1.25-2h.26a14.33,14.33,0,0,1,9.38,3.27A11.89,11.89,0,0,1,2767.83,102.54Z"/>
              <path class="cls-34" d="M2777.38,96a13.06,13.06,0,0,0-6.3-8.73c-.25-.13-.49-.27-.74-.38a16.05,16.05,0,0,1,4.24,2.62,9.86,9.86,0,0,1,1.84,2.06s0,0,0,0A11,11,0,0,1,2777.38,96Z"/>
            </g>
            <path class="cls-17" d="M2703.7,207.88c2.27,1.31,2.27,3.43,0,4.74a9,9,0,0,1-8.2,0c-2.27-1.31-2.27-3.43,0-4.74A9,9,0,0,1,2703.7,207.88Z"/>
            <path class="cls-18" d="M2701.3,209.56c-.25,1.39-3,1.2-2.75-.39l6.92-48.29,2.75-1.66Z"/>
            <path class="cls-35" d="M2759.59,183.92c.06.32.14.62.2.94-.42-.3-.82-.58-1.24-.86-2.11-1.47-4.21-2.81-6.3-4a56.28,56.28,0,0,0-15.59-6.5,35.3,35.3,0,0,0-8.13-1,6.22,6.22,0,0,0-.86.06c-4.32.48-8.13,4.37-11.82,9.23a124.43,124.43,0,0,1,4.63-11.9,8.17,8.17,0,0,1,4-3.17l-.32-.1-3.13-.92-1.11-.36a46.16,46.16,0,0,1,15.19-10.54l4.82,1.42.16.05,2-4.1a88.77,88.77,0,0,1,9.23-2.33l4.13-2.46,7.3-4.4c-3.39,12.42-5.25,24.54-4,36C2759,180.67,2759.27,182.29,2759.59,183.92Z"/>
            <path class="cls-28" d="M2752.17,162.65v.08c-.06.36-.14.7-.2,1s-.18.8-.26,1.06a7.8,7.8,0,0,1-1,2.09l0,0c-1.78,2.85-5.21,5.32-8.18,5h0a3.11,3.11,0,0,1-.75-.14l-.42-.12-4-1.17-2.39-.7-.78-.22-4.62-1.37-5.11-1.48-.32-.1-3.13-.92-1.11-.36c-2.43-.85-3.81-1.89-4.15-3.6l-.06-.48a7.36,7.36,0,0,1,0-.94s.34-5.46,2.93-8a4.39,4.39,0,0,1,4.79-1l11.68,3.43,4.82,1.42.16.05,5.12,1.5.64.18a7.51,7.51,0,0,0,3,.06c1.42-.18,2.71-.42,3.33.3a1.56,1.56,0,0,1,.36.8A13.35,13.35,0,0,1,2752.17,162.65Z"/>
            <path class="cls-28" d="M2763.71,141.14l-.39.74-.54,1.08-1.06,2.13-9.53,19.16-.82,1.65a5.21,5.21,0,0,1-.65,1l0,0a2.6,2.6,0,0,1-.36.46,4.2,4.2,0,0,1-.72.74,7.19,7.19,0,0,1-6.72,1.49,8,8,0,0,1-1.21-.48,6.83,6.83,0,0,1-1.74-1.23,7,7,0,0,1-2-3.29,7.15,7.15,0,0,1,.34-4.77c.06-.12.1-.24.16-.36l.52-1,.69-1.36.4-.82,2-4.1,5.65-11.36,3-6.08a6.89,6.89,0,0,1,2.35-2.68,7.12,7.12,0,0,1,6.1-1,5.77,5.77,0,0,1,1.21.46A7.24,7.24,0,0,1,2763.71,141.14Z"/>
          </g>
        </g>
        <g>
          <path class="cls-37" d="M336.45,335.18l15.18,29.38h0a5.74,5.74,0,0,1-7.45,3.86l-.47-.16-15.33-29.69"/>
          <path class="cls-2" d="M352.25,439.18l-.9,3.13s-19.22-2.68-22.88-9.3l-.14-6.3s5.71-4.5,12.47-2.68C346.14,425.46,353,432.12,352.25,439.18Z"/>
          <path class="cls-2" d="M370,428.6l-.9,3.13s-19.21-2.68-22.88-9.3l-.14-6.3a23.46,23.46,0,0,1,12.44-.1C363.83,417.47,370.72,421.54,370,428.6Z"/>
          <path class="cls-38" d="M323.76,374.68l16.15,9.61a2.27,2.27,0,0,1,1.12,2V423a2.24,2.24,0,0,1-.23,1c-.7,1.38-3.15,4.92-10.1,5a2.33,2.33,0,0,1-2.37-2.3v-30a2.31,2.31,0,0,0-1.1-2l-18.59-11.28"/>
          <path class="cls-38" d="M336.09,364.83l21.43,11.48a2.31,2.31,0,0,1,1.21,2V415a2.21,2.21,0,0,1-.24,1c-.69,1.38-3.15,4.93-10.11,5a2.33,2.33,0,0,1-2.37-2.28L345.75,386a2.3,2.3,0,0,0-1.32-2.06l-18.1-8.48"/>
          <path class="cls-39" d="M338.05,336.4s-7.42,4.15-11.72-.54v-13.2a5.68,5.68,0,0,1,3.41-5.21h0a5.66,5.66,0,0,1,4.84.13l.34.17a5.68,5.68,0,0,1,3.13,5.08Z"/>
          <path class="cls-40" d="M298.23,330.85c6.51-14.47,29.51-13.88,29.51-13.88s7.7-.39,8.32,10.74,0,38.64,0,38.64S319.52,384.9,307,383.5c0,0-7.77-.84-8.23-1.77S298.23,330.85,298.23,330.85Z"/>
          <path class="cls-38" d="M298.33,349.56c22.82,3.61,37.83-11.47,37.83-11.47s-.61,2.27,0,9.45,0,24.93,0,24.93-16.54,12-29.06,11.06c0,0-7.77-.55-8.24-1.14S298.33,349.56,298.33,349.56Z"/>
          <path class="cls-41" d="M309.35,317a59.71,59.71,0,0,0,.51,7.24c.45,2.48,5.49,3.08,5.49,3.08,8.12,1.73,7.74-3.84,7.74-3.84v-5.92a14.74,14.74,0,0,1-6.16.86A22.48,22.48,0,0,1,309.35,317Z"/>
          <path class="cls-37" d="M305.78,351V384h0a5.74,5.74,0,0,1-8.39,0l-.34-.35V350.27"/>
          <path class="cls-39" d="M307.24,350.27s-7.42,4.15-11.71-.54v-13.2a5.67,5.67,0,0,1,3.4-5.21h0a5.66,5.66,0,0,1,4.84.13l.34.17a5.68,5.68,0,0,1,3.13,5.08Z"/>
          <path class="cls-42" d="M323.09,316s8,2.59,9.1,8.17,1.29,19.69,1.29,19.69"/>
          <path class="cls-43" d="M304.05,324.36c2.46.7,7.83,2.75,8.5,6.11,1.11,5.58,1.28,19.69,1.28,19.69"/>
          <circle class="cls-37" cx="314.82" cy="301.62" r="18.66"/>
          <path class="cls-44" d="M302.27,284.55s17.22-10.61,30.67,5.9-19.46,4.6-20.17,4.48-5.86,7.08-5.53,11.2-.72-2.35-2.14-2.59-.52,10.59.68,14.4-12.59-4.85-12.59-13.69S295.08,290.33,302.27,284.55Z"/>
        </g>
        <g>
          <path class="cls-45" d="M2444.4,369.8,2442.35,425s-2,.4-5.21,3.09-6.21-1-6.21-1L2430.1,383l-1.25,47.5c0,1.11-.54,2.59-1.66,2.59-8.28,0-10.68,4.68-10.62.44l-2.09-54.66Z"/>
          <path class="cls-37" d="M2447.37,330.39l15.18,29.39h0a5.74,5.74,0,0,1-7.45,3.85l-.47-.16-15.33-29.69"/>
          <path class="cls-2" d="M2438.4,446.7l-.9,3.13s-18-3.42-21.65-10l-.14-6.3a12.94,12.94,0,0,1,11.24-1.94C2432.29,433,2439.15,439.64,2438.4,446.7Z"/>
          <path class="cls-2" d="M2454.8,437.34l-.89,3.13s-19.22-2.68-22.88-9.29l-.14-6.31a23.52,23.52,0,0,1,12.44-.09C2448.67,426.21,2455.55,430.29,2454.8,437.34Z"/>
          <g>
            <path class="cls-46" d="M2449,331.62s-7.42,4.14-11.72-.55v-13.2a5.69,5.69,0,0,1,3.41-5.21h0a5.69,5.69,0,0,1,4.84.13l.34.17A5.69,5.69,0,0,1,2449,318Z"/>
            <path class="cls-40" d="M2409.15,326.06c6.51-14.47,29.5-13.87,29.5-13.87s7.71-.39,8.33,10.74,0,45.14,0,45.14-16.54,12-29.06,10.65c0,0-7.77-.85-8.23-1.77S2409.15,326.06,2409.15,326.06Z"/>
            <path class="cls-46" d="M2418.16,345.49s-7.42,4.14-11.72-.55v-13.2a5.69,5.69,0,0,1,3.41-5.21h0a5.69,5.69,0,0,1,4.84.13l.34.17a5.69,5.69,0,0,1,3.13,5.08Z"/>
            <path class="cls-46" d="M2420.37,315.19s0,.55.09,1.46c.16,2,1.15,5.38,6.68,6l4.34-.21,2.53,3.6s-16.59.67-15.48-5.59c.66-3.74,1.39-3.54,1.39-3.54Z"/>
            <path class="cls-46" d="M2434,313.56s4.52,8.54,1,12.19l-2.88-3.62s1.82-1.71,1.83-3.46S2434,313.56,2434,313.56Z"/>
            <polygon class="cls-46" points="2440.01 333.74 2446.21 329.22 2446.21 336.17 2443.95 340.12 2440.01 339.47 2440.01 333.74"/>
            <line class="cls-47" x1="2433.14" y1="375.39" x2="2433.14" y2="322.83"/>
          </g>
          <path class="cls-41" d="M2420.26,312.18a60.48,60.48,0,0,0,.52,7.24c.45,2.48,5.49,3.08,5.49,3.08,8.11,1.73,7.74-3.83,7.74-3.83v-5.93a14.77,14.77,0,0,1-6.17.86A22.34,22.34,0,0,1,2420.26,312.18Z"/>
          <circle class="cls-37" cx="2425.74" cy="296.83" r="18.66"/>
          <path class="cls-44" d="M2413.19,279.77s17.22-10.62,30.66,5.89-19.46,4.6-20.16,4.48-5.87,7.08-5.53,11.21-.73-2.36-2.14-2.6-.52,10.6.68,14.4c.45,1.44,4,.89,3.56,2.64-2.1,8.48-11.63,8.91-13.45,6.48s-2.7-20.14-2.7-22.81C2404.11,290.62,2406,285.54,2413.19,279.77Z"/>
          <path class="cls-37" d="M2416.7,346.19v33.07h0a5.75,5.75,0,0,1-8.4,0l-.33-.36V345.49"/>
        </g>
        <g>
          <path class="cls-45" d="M444.12,358.65l2,55.15s2,.39,5.22,3.08,6.2-1,6.2-1l.84-44.05,1.25,47.5c0,1.12.54,2.6,1.65,2.59,8.29,0,10.68,4.68,10.62.45L474,367.68Z"/>
          <path class="cls-37" d="M441.14,319.24,426,348.62h0a5.76,5.76,0,0,0,7.46,3.86l.46-.16,15.34-29.69"/>
          <path class="cls-2" d="M450.12,435.55l.89,3.12s18-3.42,21.66-10l.14-6.3a12.92,12.92,0,0,0-11.24-1.95C456.23,421.83,449.37,428.49,450.12,435.55Z"/>
          <path class="cls-2" d="M433.71,426.19l.9,3.13s19.21-2.68,22.88-9.3l.14-6.3a23.46,23.46,0,0,0-12.44-.1C439.85,415.06,433,419.13,433.71,426.19Z"/>
          <g>
            <path class="cls-46" d="M439.55,320.46s7.42,4.15,11.71-.54v-13.2a5.68,5.68,0,0,0-3.41-5.21h0a5.64,5.64,0,0,0-4.83.13l-.34.17a5.68,5.68,0,0,0-3.13,5.08Z"/>
            <path class="cls-40" d="M479.37,314.91C472.86,300.44,449.86,301,449.86,301s-7.71-.39-8.32,10.74,0,45.15,0,45.15,16.53,12,29,10.64c0,0,7.78-.84,8.24-1.77S479.37,314.91,479.37,314.91Z"/>
            <path class="cls-46" d="M470.36,334.33s7.42,4.14,11.71-.54v-13.2a5.68,5.68,0,0,0-3.41-5.21h0a5.66,5.66,0,0,0-4.84.13l-.33.17a5.68,5.68,0,0,0-3.13,5.08Z"/>
            <path class="cls-46" d="M468.15,304s0,.56-.1,1.46c-.16,2-1.14,5.39-6.67,6L457,311.3l-2.54,3.6s16.59.67,15.49-5.59c-.67-3.75-1.4-3.55-1.4-3.55Z"/>
            <path class="cls-46" d="M454.5,302.4S450,311,453.45,314.59l2.89-3.62s-1.82-1.7-1.83-3.46S454.5,302.4,454.5,302.4Z"/>
            <polygon class="cls-46" points="448.5 322.58 442.31 318.07 442.31 325.01 444.56 328.97 448.5 328.31 448.5 322.58"/>
            <line class="cls-47" x1="455.37" y1="364.23" x2="455.37" y2="311.68"/>
          </g>
          <path class="cls-41" d="M468.25,301a58.45,58.45,0,0,1-.52,7.24c-.45,2.48-5.48,3.08-5.48,3.08-8.12,1.73-7.74-3.84-7.74-3.84v-5.92a14.74,14.74,0,0,0,6.16.86A22.48,22.48,0,0,0,468.25,301Z"/>
          <circle class="cls-37" cx="462.78" cy="285.68" r="18.66"/>
          <path class="cls-48" d="M475.33,268.61s-17.22-10.61-30.67,5.9,19.46,4.6,20.17,4.48,5.86,7.08,5.53,11.2.72-2.36,2.14-2.59.52,10.59-.68,14.4c-.46,1.44-4,.89-3.57,2.63,2.11,8.48,11.64,8.91,13.46,6.48s2.7-20.14,2.7-22.8C484.41,279.46,482.52,274.39,475.33,268.61Z"/>
          <path class="cls-37" d="M471.82,335V368.1h0a5.74,5.74,0,0,0,8.39,0l.34-.35V334.33"/>
        </g>
        <g>
          <path class="cls-37" d="M2495.57,399.48v33.07h0a5.74,5.74,0,0,1-8.39,0l-.34-.35V398.78"/>
          <path class="cls-39" d="M2497.18,400.06s-7.35,4.26-11.72-.35l-.22-13.2a5.68,5.68,0,0,1,3.32-5.27h0a5.71,5.71,0,0,1,4.83.05l.35.17a5.66,5.66,0,0,1,3.21,5Z"/>
          <path class="cls-2" d="M2507.46,502.54a8.18,8.18,0,0,0,6.31-1c4.37-2.68,11.37-7.58,10.4-10.89-1.4-4.77-14.79-2.22-21.2,4.85,0,0-2.8,5.34,2,6.41C2506,502.16,2506.78,502.36,2507.46,502.54Z"/>
          <path class="cls-2" d="M2495.65,494.33a8.2,8.2,0,0,0,6.32-1c4.36-2.69,11.36-7.58,10.39-10.89-1.4-4.77-14.79-2.22-21.2,4.85,0,0-2.79,5.34,2,6.4C2494.14,494,2495,494.15,2495.65,494.33Z"/>
          <path class="cls-40" d="M2487.09,433.54s19,23,30.13,19.81V405.07s.44-25.91-22.35-21.36c-4.69.94-6.13,8-6.32,12.76Z"/>
          <g>
            <path class="cls-37" d="M2516.93,393.69l19-27.09h0a5.74,5.74,0,0,1,6.88,4.81l.07.48-19.16,27.38"/>
            <path class="cls-39" d="M2516.09,392.08s8.47.72,9.41,7L2518.11,410a5.69,5.69,0,0,1-5.74,2.41h0a5.7,5.7,0,0,1-3.94-2.82l-.18-.33a5.67,5.67,0,0,1,.25-6Z"/>
          </g>
          <path class="cls-41" d="M2495.92,383.71a60.48,60.48,0,0,0,.52,7.24c.45,2.48,5.49,3.08,5.49,3.08,8.12,1.73,7.74-3.84,7.74-3.84v-5.92a14.77,14.77,0,0,1-6.17.86A22.58,22.58,0,0,1,2495.92,383.71Z"/>
          <circle class="cls-37" cx="2502.15" cy="367.72" r="18.66"/>
          <path class="cls-38" d="M2517.22,419.18v34.17l-4,.68.86,44.5a3.62,3.62,0,0,1-5.43,3.13l-3.78-2.19a3.61,3.61,0,0,1-1.81-3.13l.48-45.92-2.11-2.1v42.45a3.81,3.81,0,0,1-5.71,3.3l-3.4-2c-1.18-.68-1.91-1.93-1.91-.61v-54l-3.29-3.92,1.14-28.79s19.55,13.92,29,14.43"/>
          <path class="cls-42" d="M2504.68,415.68s-1.26-15,3.56-19,6.05-4.63,6.05-4.63"/>
          <path class="cls-42" d="M2490.6,407.88s-2.26-20.25,5.32-21.5"/>
          <path class="cls-49" d="M2486,354.49c8.49-6.74,21.35-8.35,31.93-6,2.05.46,4.44,1.61,4.54,3.71a4.21,4.21,0,0,1-1.25,2.87c-1.66,1.85-4,3-5.56,4.92s-2.56,8.13-2.08,10.72c-1.57,1.2-4.19-3.76-5.37-2.18a2.27,2.27,0,0,0-.39,1.27c-.17,4.3,6.34,6.63,6.1,10.93-.11,1.91-1.6,3.45-3.13,4.59-6.1,4.53-14.58,5.63-21,1.15a16.69,16.69,0,0,1-6.83-10.87c-.84-5-1.89-9.88-.44-15C2483,358.77,2484.41,355.5,2486,354.49Z"/>
          <g>
            <ellipse class="cls-29" cx="2497.37" cy="360.57" rx="20.71" ry="12.24" transform="translate(582.11 2003.32) rotate(-48.84)"/>
            <ellipse class="cls-50" cx="2492.57" cy="360.83" rx="18.71" ry="13.12" transform="translate(580.27 1999.8) rotate(-48.84)"/>
            <path class="cls-51" d="M2504.88,346.75s-15.11-3.46-21,10.81-1.64,18.66-1.64,18.66"/>
          </g>
        </g>
        <g>
          <ellipse class="cls-29" cx="315.64" cy="291.6" rx="13.54" ry="22.19" transform="translate(-18.38 561.95) rotate(-81.72)"/>
          <path class="cls-50" d="M296.07,293.44a6.54,6.54,0,0,1-3.18-6.43c.61-5.15,3-13.28,11.69-14.61,12.91-2,19.88,2.52,24.89,11.67s-2.87,14.46-14.72,14.7C307,298.92,300,295.71,296.07,293.44Z"/>
          <path class="cls-33" d="M329.75,293.78c-3.46-19.77-25.81-21-25.81-21l-7.13,3.92s22.35,1.18,25.81,20.95l4.46-1.92Z"/>
        </g>
        <polygon class="cls-33" points="2452.08 337.56 2473.02 349.36 2473.02 383.58 2452.08 371.36 2452.08 337.56"/>
        <polyline class="cls-52" points="2454.37 347.47 2455.24 349.11 2459.31 345.51"/>
        <polyline class="cls-52" points="2454.37 355.45 2455.24 357.09 2459.31 353.49"/>
        <polyline class="cls-52" points="2454.37 364.57 2455.24 366.22 2459.31 362.62"/>
        <g>
          <polygon class="cls-53" points="310.63 386.5 349.19 364.23 369.39 375.89 330.77 398.13 310.63 386.5"/>
          <path class="cls-54" d="M367.31,375.6,366,376A41.54,41.54,0,0,0,352,383.62l-3.22,2.66-.55.16A41.67,41.67,0,0,0,332.59,395l-2.27,2-18.49-10.68,2.27-2a41.51,41.51,0,0,1,15.66-8.55l.56-.16,3.22-2.66a41.71,41.71,0,0,1,13.92-7.59l1.35-.43Z"/>
          <line class="cls-55" x1="330.32" y1="375.6" x2="348.81" y2="386.28"/>
        </g>
        <g>
          <polyline class="cls-56" points="172.95 286.15 123.4 263.31 83.33 280.98 141.43 319.01"/>
          <polyline class="cls-56" points="145.98 280.65 162.97 288.95 146.63 297.44"/>
          <line class="cls-57" x1="111.75" y1="297.36" x2="132.43" y2="296.75"/>
          <line class="cls-58" x1="122.09" y1="297.05" x2="124.05" y2="301.5"/>
          <path class="cls-49" d="M117.63,301.66s7-1.53,10.53.33,7.93,12.1,7.93,12.1l-18.46-12.43"/>
          <polyline class="cls-57" points="70.8 281.53 145.23 329.01 125.05 339.93"/>
          <ellipse class="cls-49" cx="157.36" cy="321.9" rx="12.93" ry="5.95" transform="translate(-27.95 15.24) rotate(-5.09)"/>
          <ellipse class="cls-49" cx="206.11" cy="292.82" rx="12.93" ry="5.95" transform="translate(-25.18 19.45) rotate(-5.09)"/>
          <path class="cls-29" d="M169.56,317.1a1.72,1.72,0,0,0,1.66-.1l31.65-18.14s-9.63,1.21-11.26-6.34c-1-4.73,11.68-8.09,17.49-5.61l-22.9-7.22a1.88,1.88,0,0,0-1.45.14l-41.47,22.22,11.38,6.52L139.9,320.22l2,1.55a20.08,20.08,0,0,1,14.06-7A29.34,29.34,0,0,1,169.56,317.1Z"/>
        </g>
        <g>
          <polyline class="cls-59" points="2793.36 274.62 2837.33 300.01 2837.33 392.23 2886.56 363.4"/>
          <path class="cls-3" d="M2790.84,279.53a5.51,5.51,0,1,1,7.52-2A5.51,5.51,0,0,1,2790.84,279.53Z"/>
        </g>
        <g>
          <polyline class="cls-60" points="2742.91 303.97 2725.83 311.88 2725.83 373.99 2765.4 353.65"/>
          <path class="cls-3" d="M2740.54,299.47a5.08,5.08,0,1,1-2.47,6.74A5.08,5.08,0,0,1,2740.54,299.47Z"/>
        </g>
      </g>
    </g>
  </g>
</svg>
